<mxfile host="app.diagrams.net" modified="2024-08-18T02:41:13.617Z" agent="Mozilla/5.0 (Windows NT 10.0; Win64; x64) AppleWebKit/537.36 (KHTML, like Gecko) Chrome/127.0.0.0 Safari/537.36 Edg/127.0.0.0" etag="Af6GuMyCppJG2dnW4uiP" version="24.5.2" type="github">
  <diagram id="7aLo2B06E9Q5493Okd-s" name="mds_mkt_arch">
    <mxGraphModel dx="7652" dy="5014" grid="1" gridSize="10" guides="1" tooltips="1" connect="1" arrows="1" fold="1" page="1" pageScale="1" pageWidth="827" pageHeight="1169" math="0" shadow="0">
      <root>
        <mxCell id="0" />
        <mxCell id="1" parent="0" />
        <mxCell id="0ZA1Bk6u35t-kXVyPO7H-1" value="" style="verticalLabelPosition=bottom;verticalAlign=top;html=1;shape=mxgraph.basic.rect;fillColor2=none;strokeWidth=1;size=0;indent=5;fontFamily=Helvetica;fontSize=11;labelBackgroundColor=default;fillColor=#fff2cc;strokeColor=#d6b656;" vertex="1" parent="1">
          <mxGeometry x="-430" y="-250" width="3110" height="2580" as="geometry" />
        </mxCell>
        <mxCell id="5N2f74oznS9qFW2vfuFr-1" value="&lt;span style=&quot;color: rgba(0, 0, 0, 0); font-family: monospace; font-size: 0px; text-align: start; text-wrap: nowrap;&quot;&gt;%3CmxGraphModel%3E%3Croot%3E%3CmxCell%20id%3D%220%22%2F%3E%3CmxCell%20id%3D%221%22%20parent%3D%220%22%2F%3E%3CmxCell%20id%3D%222%22%20value%3D%22%22%20style%3D%22group%22%20vertex%3D%221%22%20connectable%3D%220%22%20parent%3D%221%22%3E%3CmxGeometry%20x%3D%221350%22%20y%3D%22-290%22%20width%3D%22400%22%20height%3D%22340%22%20as%3D%22geometry%22%2F%3E%3C%2FmxCell%3E%3CmxCell%20id%3D%223%22%20style%3D%22edgeStyle%3DorthogonalEdgeStyle%3Brounded%3D0%3BorthogonalLoop%3D1%3BjettySize%3Dauto%3Bhtml%3D1%3B%22%20edge%3D%221%22%20parent%3D%222%22%20source%3D%224%22%3E%3CmxGeometry%20relative%3D%221%22%20as%3D%22geometry%22%3E%3CmxPoint%20x%3D%22640%22%20y%3D%22610%22%20as%3D%22targetPoint%22%2F%3E%3C%2FmxGeometry%3E%3C%2FmxCell%3E%3CmxCell%20id%3D%224%22%20value%3D%22%22%20style%3D%22rounded%3D0%3BwhiteSpace%3Dwrap%3Bhtml%3D1%3Bdashed%3D1%3BstrokeWidth%3D5%3BstrokeColor%3D%239999FF%3B%22%20vertex%3D%221%22%20parent%3D%222%22%3E%3CmxGeometry%20width%3D%22400%22%20height%3D%22340%22%20as%3D%22geometry%22%2F%3E%3C%2FmxCell%3E%3CmxCell%20id%3D%225%22%20value%3D%22%22%20style%3D%22shape%3Dimage%3BverticalLabelPosition%3Dbottom%3BlabelBackgroundColor%3Ddefault%3BverticalAlign%3Dtop%3Baspect%3Dfixed%3BimageAspect%3D0%3Bimage%3Dhttps%3A%2F%2Fseeklogo.com%2Fimages%2FA%2Fairbyte-logo-CC005A0105-seeklogo.com.png%3B%22%20vertex%3D%221%22%20parent%3D%222%22%3E%3CmxGeometry%20x%3D%22113%22%20y%3D%2280%22%20width%3D%22174%22%20height%3D%22180%22%20as%3D%22geometry%22%2F%3E%3C%2FmxCell%3E%3C%2Froot%3E%3C%2FmxGraphModel%3E&lt;/span&gt;" style="rounded=0;whiteSpace=wrap;html=1;dashed=1;strokeWidth=5;strokeColor=#6c8ebf;fillColor=#dae8fc;container=0;shadow=0;" vertex="1" parent="1">
          <mxGeometry x="355" y="550" width="2055" height="1490" as="geometry" />
        </mxCell>
        <mxCell id="tqLrTWhQqX8cOcFELbVj-5" value="" style="group" vertex="1" connectable="0" parent="1">
          <mxGeometry x="1170" y="620" width="730" height="610" as="geometry" />
        </mxCell>
        <mxCell id="tqLrTWhQqX8cOcFELbVj-1" value="" style="rounded=0;whiteSpace=wrap;html=1;dashed=1;strokeWidth=5;strokeColor=#9673a6;fillColor=#e1d5e7;container=0;shadow=0;" vertex="1" parent="tqLrTWhQqX8cOcFELbVj-5">
          <mxGeometry width="730" height="610" as="geometry" />
        </mxCell>
        <mxCell id="tqLrTWhQqX8cOcFELbVj-2" value="" style="shape=image;verticalLabelPosition=bottom;labelBackgroundColor=default;verticalAlign=top;aspect=fixed;imageAspect=0;image=https://kind.sigs.k8s.io/logo/logo.png;container=0;shadow=0;" vertex="1" parent="tqLrTWhQqX8cOcFELbVj-5">
          <mxGeometry x="30" y="20" width="198.99" height="120" as="geometry" />
        </mxCell>
        <mxCell id="tqLrTWhQqX8cOcFELbVj-3" value="" style="rounded=0;whiteSpace=wrap;html=1;dashed=1;strokeWidth=5;strokeColor=#9999FF;container=0;shadow=0;" vertex="1" parent="tqLrTWhQqX8cOcFELbVj-5">
          <mxGeometry x="165" y="160" width="400" height="340" as="geometry" />
        </mxCell>
        <mxCell id="tqLrTWhQqX8cOcFELbVj-4" value="" style="shape=image;verticalLabelPosition=bottom;labelBackgroundColor=default;verticalAlign=top;aspect=fixed;imageAspect=0;image=https://seeklogo.com/images/A/airbyte-logo-CC005A0105-seeklogo.com.png;container=0;shadow=0;" vertex="1" parent="tqLrTWhQqX8cOcFELbVj-5">
          <mxGeometry x="278" y="236" width="174" height="180" as="geometry" />
        </mxCell>
        <mxCell id="7p6JM9Kz5mrJ7yuZOtpK-1" value="&lt;font style=&quot;font-size: 48px;&quot;&gt;Airbyte&lt;/font&gt;" style="whiteSpace=wrap;html=1;fontFamily=Helvetica;fontSize=48;labelBackgroundColor=none;strokeColor=none;fillColor=none;rounded=0;glass=0;shadow=0;fontStyle=1;container=0;" vertex="1" parent="tqLrTWhQqX8cOcFELbVj-5">
          <mxGeometry x="300" y="430" width="130" height="60" as="geometry" />
        </mxCell>
        <mxCell id="kDbNw65WWVTOaRm87vZu-4" value="" style="group" vertex="1" connectable="0" parent="1">
          <mxGeometry x="1910" y="1320" width="630" height="1144.46" as="geometry" />
        </mxCell>
        <mxCell id="kDbNw65WWVTOaRm87vZu-1" value="" style="rounded=0;whiteSpace=wrap;html=1;dashed=1;strokeWidth=5;strokeColor=#9999FF;container=0;shadow=0;" vertex="1" parent="kDbNw65WWVTOaRm87vZu-4">
          <mxGeometry width="400" height="340" as="geometry" />
        </mxCell>
        <mxCell id="kDbNw65WWVTOaRm87vZu-2" value="" style="shape=image;verticalLabelPosition=bottom;labelBackgroundColor=default;verticalAlign=top;aspect=fixed;imageAspect=0;image=https://cdn.jsdelivr.net/gh/devicons/devicon@latest/icons/postgresql/postgresql-original-wordmark.svg;container=0;shadow=0;" vertex="1" parent="kDbNw65WWVTOaRm87vZu-4">
          <mxGeometry x="115" y="85" width="170" height="170" as="geometry" />
        </mxCell>
        <mxCell id="kDbNw65WWVTOaRm87vZu-3" value="" style="sketch=0;shadow=0;dashed=0;html=1;strokeColor=#006EAF;fillColor=#1ba1e2;labelPosition=center;verticalLabelPosition=bottom;verticalAlign=top;outlineConnect=0;align=center;shape=mxgraph.office.databases.database_mini_3;fontFamily=Helvetica;fontSize=11;fontColor=#ffffff;labelBackgroundColor=default;container=0;" vertex="1" parent="kDbNw65WWVTOaRm87vZu-4">
          <mxGeometry x="316" y="70" width="135.09" height="220" as="geometry" />
        </mxCell>
        <mxCell id="0ZA1Bk6u35t-kXVyPO7H-8" value="" style="group" vertex="1" connectable="0" parent="kDbNw65WWVTOaRm87vZu-4">
          <mxGeometry x="270" y="400" width="360" height="564.46" as="geometry" />
        </mxCell>
        <mxCell id="0ZA1Bk6u35t-kXVyPO7H-4" value="" style="shape=image;verticalLabelPosition=bottom;labelBackgroundColor=default;verticalAlign=top;aspect=fixed;imageAspect=0;image=data:image/png,iVBORw0KGgoAAAANSUhEUgAAAkwAAAPKCAYAAABm+gWyAAAACXBIWXMAAAsTAAALEwEAmpwYAAAAAXNSR0IArs4c6QAAAARnQU1BAACxjwv8YQUAAMveSURBVHgB7P1dcF1lljd4LvlLAhIkk5G2EwrruCrS9NsRGHsikouJJi33wHsFYzmKvEpiLL9vzU3XG2H5cmYixvLN3NqOieyrqrE8nVxlZtiOpG8SoiVDdV9ARvuDi24gqnRkCko2AZagDJJl+/T+H50Nx7Kksz/Wej72/v8iTtqQBmzpnL3XXms9a/UJEVGi1WoNJT/sT14vJq9G57W/8383MvwrmslrvvO62vnra/h5X1/fvBARRaxPiKi2kiBpJPnhcPLCj/vFztXO63wSPE0LEVFkGDAR1UxXkDSWvIbEPWSbLgqDJyIvOtnkhqw8JA3LynWg+7WWZtePs50fa5U9ZsBEVAOdC+TR5DUqK9mkUDST10TyusSyHZGNzucfn/2DsvL5b4iepqxkj6eT1+Xkc3xViIhigwtl8ppIXrdbYZtJXhNCRCpaP372p1puzSSv08nLssRPRKQnuWCNdi5eMZlJXkeFiHJrrQRJ+NxPtcJwpcXPMxGFKrlAjbTCuWAWNZO8GkJEPSWflf2tlaxOqJnkmRYDJyIKRWvl6fJMq1omhIjW1Irv4WimFXHgxKZvogpILkJo6Dwnfk69WcOJuhN9fX1NISJ83huy8nkfkTg1k9eh2D7Tm4SIotVaySpNJj+9INUMlgDB4FSLJTqquc7n/Uzy0xmJN1iCRvJCtmlCIsIME1GkWiunUBAoNaQemsnrCI8tUx21VuanIavUkGppSiTZJmaYiCKUXDzHkx+mpD7BEjSS15XOn52oNjpZpap+3huy8rkOvreJARNRRLpS8qeluiW4Xk7HlsonKgJl6OSFQOm4VBuuZZOhf65ZkiOKRKeHByU4DoRbcSZJ458QogrqfN7rlkUGHPI4FuLkfwZMRBGo8cWzF/QzHeJaFaqSTn8iPu91zSLjc30ktL4mBkxEgathc3deDJqoMhgs/aApgTWDs4eJKGDMLGXSvsG0VhaMEkUreQ+PCYOlVEMCGyfCDBNRoBgs5cZME0WrEyydE1otmM81M0xEAWKwVAgyTbzhUHQ6ozL43l1b2pLgHQMmojBVcUCdC9jUzhsPRaNzlP600EawM8/714gBE1FgOhfQEaGixhA0saeJQtf5rJ8UymLc93BL9jARBaSz/mBKSAN7mihYDJYKwWf5gK+TcwyYiALRyYhcEZbiNDFoouB0pvVXfXq3lenk83xIPGBJjigcE8JgSVs6cqAhRJ51VhvVYdWJpRFf+ySZYSIKQOeGPiNkpSmRbESnauJqI1XIGO9xnTlmhokoDDwlY6shzDSRJ11jQhgs6UD7gvP+L2aYiDxjo7dTTWGmiRziqhNTe1x+lplhIvKPJ2XcaQgzTeRIZ3o3DnIwWLLhNDPPDBORR+xd8oan58gUxwY44yzLxAwTkV+8oPrBhb1kpjM2gJ9tN5wNs2SGicgTZpeCwEwTqekE4FjNMyrkirMTc8wwEfkT/BPo9PS0jI+PS6PRkO3bt0tyUVrzdeDAATl27Fj710cmmMWeFLeuk3AMltxCkHpQiKiacHFtBWxqaqp18ODBFn6reV9JcNWamZlpRYYLe6mw1srneaZFvjg5ZcySHJEHrZUb9JgEZn5+vp1ROn/+vJR18uRJmZiYkIhMJtmyY0KUQ6sCK42azaZcvHhRrl692r4G4NUNGeb9+/fLyMhI+8cAeRlkSUTGWoFml06fPt0aGhoqlFVa75UETa3IMNNEuSTvmSutCN2+fbv9mc+bSUYG+cKFC60AHRUiqpbkgz3WCggunEePHlUNlLpfY2Nj7f9GRCaEKIPkvTLZigw+i3iQKftwlGSiW4GZEiKqllZAvQ7oNcIToxgFS+krSePH1tc0IUQbwHukFRn0JmpmkQPsV+SYEKKqSD7QI61AnDt3Tr0EJ3FdXHuZEKI1tCIMlvB5l+p/rk8KEVVD8oE+1woAnjTFUaAkDJqoQpL3xGgrMijBST0+17eFiKqhFUA5zlUZThg0UcW0Vg5sRNWQZx0spS+U3QMxIkQUt+SDHMQVxbLBO+uLQRPFphXhrCVXwVL6CuRU7DkhorglH+TjLc8QpIjnYEm6gqbITs+NC9VS8r0fajFY6vlCT2QAn2n8Btj8TRSz5EPsfXhJCNkliTvTdFSodpLv+1QrIsePH/f2mUZzeQBGxAB3yRG543VELqb5Xr58WUKC39OhQ4faP0YCc3cYNNVI8v0+k/wwIpEYGxuTs2fPii+BXGMOCxHFqbWS0vfKR4o+64uZJgpRK6LxAdYDaLO+AinLTQkRxakVwPwlnyfjsrwiC5pwRwhyqRbpSL6/wY2yXg8CFJxSk0A+y1i5EgD1PiaW5IjceFE8mpycDL7sFVl5DhfjqRaDpkrqfF9PSwTweTlw4EB7cW4oLl26JAHgZ5MoRi3PDd+hZ5eEmSYKRCui8QFXrlwJ9rON35tnx0UZM0xEbjTEk+np6ZiaqmPNNDWEotf5Pk6Jx89rVhcvXgz6c4Lfn2cjQkTxaXkUcrO3VCfTNNNi0BS11srBDO9pkSzQIySBf37R/O2Z+poUZpiIjLU8l2xC6m3II7JMU0NWMk0cmBevcxJB38vExIScOHFCQjc/P9/ObnuEiG1YFDFgIrLn9SI8OzsrsWLQRC60VlbfjErgMGPp1KlTEosAynLBf0+JqEtyMT7X8gTHjUU51T64ta/18s+2Ok3vR1aeOycUjVYEs5ZCGxuQ9RXAQt5zoogZJiJ73jJMFuW4l3dslSRgar9ciSzTNJZcqKM4kl53yfdpLPnhpAQsxLEBWeH3jNKcRyOiiAETkaHWSnmmMgHTwOY+2Te4pf1zH0HTkSNHfF+As8LQwwmhYLUimLUU4eqgR3gO9BotxRI5AyYiW973x2naOfDwJcN10ISLL24gkQRNJ5OL9bhQcForJxovyMpYiCBVIViCAPqY1K7BDJiIbB0Uj7Sf7nb29z3y9xg0bQg7Io4KBaMVwawlvLd9BEv7BjdL/6Y+0XTt2jXxTG3LAgMmIlteM0zaF6vdT2xe8+/7CJpQnovEmRangYcEmaWGBOzYsWPOg6WXnt4irz3bn2SRdQOmAHqvmGEiisSIeGLRcDm0bf1LhuugCTNecGOJAKeBByL5HpyRwGctYc6S6zIWPrev7NrW/vnqsntZuAZ5DpoYMBGFrpNV8NYjYTE0bkf/xk+froMmLBVm0ERZdJrw1feLaUKw5HrO0urP7N4nN4s2zwMsG6KEARORnYZ4pN6/lPHJk0HTuhrCwZZedJrvgx4fgPex62Dp1SSrtPqzqp1hAs99TGoTvxkwEdnx2vCtfZHKcyFdSfG7DZrwdB6BhjBocir5WmPac9DjA/Bw43LdCRq739i9TX759JZH/j+MDumVSc7Lc4YJRkQBAyYiO956JSz6BnY/ke9y8dLTboMmPJ1HEjThfcFp4A50SqBBf61dzxcb3Nonbzb6Ze9Ptqz7a4af0C3L4c/o+VSryrWYARORnRHxxKLJctdA/osogiaX5bmIgqZRTgO31TU+gLOWOlaCpYGe2WKLspzneVINUcCAiciA72Pk2inwMml61z1NEQVNnAZupFPyDHrWEiCz5CqQwLiAv/ubgXbQ1It2hgmqcFKOARORDa9PtdoBU9knTgZN6zrJwZYmUIZrSMDGxsacBREYSInMUtahlAiqtAdYVmFFCgMmIhtq02WLUG/4VmgCZdC0rsnkYj4ipKIza2lUAob35fnz58UFfOYwkDJvADSo/FENYOJ36SwTAyYiGw3xxGJg5W6lFL2PoOnMmTMSgQuc0VQeZy09bK2xAVlpl+UCmPhderQAAyYiG956mCx6IjSbQHEBX+s4sxUc13b1NF8CB1uWFMOsJUzwdhUsvfbstlKfs8Ft+hO/Y2/8ZsBEZMNbwKTdv4R+hiyNonngyfeFQf3G0vWgXySCoKkhK5kmzmjKqXPIIuhThwgWXA1Yxedr32C5h5Ldj+uHB777mKQkBkxEyjo3PG83Pe2nuF2P2QQ2rz/b7zRoGh8fD6Es0AtnNOXUycpdkICl4wNczCLSyuAOKT8kATNMRLSa15ECs7OzosniSTPlMmjCzcrlzJsSOKMpo65ZSw0JlMv33UtJoKTVI4hRItqZZc+N3w0piQETkT6vJRVfO+SKQtCkvYphPREFTZzR1EMnk4vMUkMCNjo66uT9hibtV5JSnPa/UxNLckS0mreRAhYXJAy8s4YZMa6CJpflkZI4o2ljOP7oNZvbC8rAly9fFmvIBL3xnG6wBDsG9Bu/fSq7hJcBE5E+rzvkNCEtX3SA3fX5e/Lh1/cy/Vr8dxg0remM76nxIepk34IOJjE+4OzZs2ItXXeiPWiy/e9WPswaQGZ3u5TAgIlIX0M8Cakc9/6Xy/LO3F25vhBm0OR6Q3xB7bITxw38qBMsBT0+ALO/XIwPQJCEz8zgVpvPjPZoAfAcNDHDRBSYhniifTFCEFPEx9/ck4XlVvvn784ty82lB5n+Ofz3fr273+wGsNrk5GQMQVNDOG6gLfkaYIJ30MGSy0D89b/amuuzMr/8QJYetDL/eouTcp6zug0pgQETkSLfIwW0M0xFsz3dpbjF+y35w42l5GKd7UI9uHVT8tTsLmhCNiCCFSrBzxmy1smyBT1yAQ8sWKjrAk7D7f1J9prZ3OIDeau5lDzM3M/8z5Qpya8n5sZvBkxEurz2m6jvkCtQksNT7I3vHs4oIdv0VnMx2KApkhUqYzU/OYfxAcFm2dK+OBclp7wrhq4lZXEES/gcZi2RpwaUp354zjCVev8wYCLS1RBPcCHSvhgNFehheP/W8pp/HxfrP362mLkk4DpoimSFSi1PznUCxYYECp87ZJZCnLX03pd35X/8/O4Pn7tbi61cZTntz5/nHqZSD7QMmIh0lV7wWJRFqjtvSQ7ZpY8W1k/530wu1r//bEmych00RTINvFYn52LoW8LKExfvG4z4yDpraTEJiv70+ZL805cPZ5RQIs9TlhtSbvzWHqybEzNMRAGpzEiBIuW49bJL3W7ceSB/+iLMoCmSwZa1OTnX+TMG3buF/jcs1bW2MmtpINOvxYMLSuDrPbzkKctVLMPUkBIYMBHpqkzDd5ETcqt7l9bz0fz9zDOaAEHT3z7XbzJrZrVIgqaGBL4/TQkySw0JFIIlF+MD0llLWYKXtLkb2dz15CnLaQdMMQ+vZMBEpMtbhkl9BlPOchwGVS4sZ++NwJymPHYlGa/fNNwETZEMttxf5Z1zyZ9tLPlhTAKFkRSuZi298Vy2DOtKZmmp5+cwT1muXzlKwGfL8+eq8PBKBkxEurxlmLQvQnmH1mXNLqVw0Z79LnsvBSBoenWXznLRXiIJmrBzblwqJvRSnMtZS6/+fGum8ngaLGXNHGUty+16TH85tufPVOHVVQyYiJT4bsT1PVJg/m6+gAk+/CrfEWfYN7RFXnEUNEUyDfx08t4bkWpBuTHIEQLprCUXN32chtuXYT9J1sxSt6xluX6DKMFzubvw+4oBE5Eerxd4iz1yeWzUM7EeZKXyHHFOvfR0vjk0ZaD0EsFgy8o0gXdGCAR5CjDEWUs4DZc3WGr/cxnLchbDK2Nt/GbARKSncKq3LN8jBXDxLRL44J9771a+XqYUbia/fFp5O+g6IhhsiWB9Kvb1KZ2gL9gRAq5mLe19cnOOYGkxd7CUyr7nUVQxw0REDfFEvX9pa97sUv5yXAqn5bLumlvt1V3b5IVB/R6LtaA05+L4eAkNCXxe0UY6wd6UBMrVjC589l5/NtuspXf+7W6hzG7qVsZ/dsdApWYxFc5eMmAi0tMQT7Qv5HmH1SFTVMY7c3elKARNRXfe5eVqQGEJ451BjzGakEBHCKAke/bsWbGWjg/IUgL789zShkNis8iaGX5sc6VGCzDDRBSAhniineLOm2G6tVQuYMIwy7wn5lLoscg6o6YslyswSjgXW2muM0LguAQIpVhX4wOyvo+x7uQvX5cLllILGSri2p+tWBfwMmAi0tMQT3wHTHMlSnKptz8vnmVaCZrcTAOPYNwAgqVzEomQ+5ZQgnV1SjLr+xfB0up1J2VkOd3K4ZUrGDARKeg80Xt7qtfuCcg7UmDhbvmACY2reaZ/r5auUHE12BKZpoCNRjRqIMhp3vgeowTrAsrKWT5zn3x7TzVYgiwN49qjBSwWhefUkAIYMBHp8HoMWjvDlHekwEKxg26P+OCrcv8iBE2upoFPT0+HPqMp+NJcZ+jmmATGZRYx62lPzFr60+dKH7QuWR52Kji8siEFMGAi0uF1wrf+4l37kQJrwdPuJ9+W681wOQ0c/S0Bz2hqSMCn5kItxbncJfhSEihlGR+Qd4p3Hlmq6RbDKz33MRW6XjNgItJRqRlMeTI0NxX6l7p98HX5p2iX08DREHz+/HkJ1HjApTmMEAguA4YynItgCQ8lr+zqPT6g6GDKkZGRTL8uy+fXYnil5wxToYoAAyYiHd5KcvrZpXyXhZtLuk+9ZU7MdXM5DdzVjJ6CgivNJb8fTAFtSGDwfXQxaysdH5DFn/71bu5gCVnPc+ey9f1nHQkyqPxRinF4JQMmIh3ebkjaN+rc/UsZG773788eU77/pU6vhqtp4IGPG2hIQKWvUEcIYAVOaLOWcCLu03/P9/CAoO/kyZMyNJTtkpQ1GMu7jLsXz8MrG1IAAyYiHd4yTNo36Z05h0BmLckdP348c5lAK8sEOIH0iyftp4G7XMpaQBCluVD7lvC9C23WEkrTeU/EjY6OyunTp9s/R8CkGTRVbHhlQwpgwERUku+RAuozmHI+SWZdzdBoNOTo0aOSlVaWCV5/xs00cGT7Aj45F0Jp7oIEWIobGxtzkh18/a+2ZgqWZu/cl3fn8r3/8flaXYYbHBzM9M9mCZgqNrxyqMhngQETUXkN8ejatWuiKU8PU54TcijJ4caEC3sWmlkmlBl/vdvNYEuUdgI9OdcQj9md5AY1IZ7Hb6wF36vLly+LNZSH9/4k2/iAP3yWb4grPlNTU1OPZJSylsHrOLwykS2a7MKAiai8hnhiMVIgTw9T1nJcd3kApbmsNLNMLgdborwT6KJeL7vmkv8m7ty1LcUhWLIaH4DPFYKltR5EVgdQ65XofGSYAhhemTt4Z8BEVJ63kQIWZYQ8pausJ2y6n3SRZcraW6GZZQIETW88l20TfFmujqcXcK7TS+RE5791QQKEeUvW9g1uznxa84+f5R8fgFlg62VtV2eY1gtQsvw3h7bphwuxnZRjwERUXmUavq2W7r744o8xJYKlPFmmMjvm1jL8xGYnM5rSAYgBNoG73jUX5OoTlOKsb9iYtfTas/2Zfu2f55Yy9wOm8GfYqC9Qs+nbopztOWBqSE4MmIjKq0zDt8VTZPvfu+rCjaPPeS7mZXbMrcXVjKaAd86NdNaSmAp19QnW2liX4hBgvPFctllLGB/wl6+LjQ/YiGYPE1Ssj6khOTFgIiqvtiMFspYP1uqlyNvLpL0WwtWMpoB3zp20LM11/t2nJTAuluqms5aynojLOz4AgVA6PmAjWQ9YZP0ca69IYUmOqEZ8jxTQPprbn3PWyvf3iwVMkCfLhF6pD77SzTIBZjTtftz+Mog+E7wCgy++SW9R53MxJQFyUYp747lsJzLR5P32F/lPxF24kO3bpj2LSXsJr+fhlWz6JnLM6zFp9QxTzrUoS/ezz2BaDRfyLE/JKWSZ5pd1s0yQ9eZWFkpAATaB70+CG4ss0IQE2LeEkQ/We/9ee3Zbps9RkR1x6fiArJmj9J/JIsuJV2aYiKgMr4MAtZ/QrHqY1oMTc1mnf8PbXyyJNoxRwLgB66AJ/RrWpaCCVKeAh7r6xMUIAZR59w1mK/O+dyv/jjhklvIES9B94GIjmRq/la8PvgOmvMMrGTARleNtpIDFpNy8CzazXvA3usj3alztpj1mIIVxA3/7XLbTTGWgnynA0hyoTAEPdfUJWE/z3je0JfNBgiJN3njf5NnHmMpcksvQ+D1QrQwT5BpeyYCJqJzKNHwj05J3qOOiQuyCDBN2YGX17pzumIHUruRu4GLcALIcAY4aaIjOqIFgRwhYTvNGdjJrsFSkyRu//zyHJLplDbIWMvyWdgxUbhbT9jy/mAETUTmVGSmws8DFMOvJtV5lBPQyZX0Sxqwa7TEDKYwbsD45F3BpbrTMqIHONO8xCYyLUtyrP99q1uSNgCdPFna1rJ+rLKMFtBfwtv+7fh8emGEicqghnvgeKbBY4oTcagio8o4ZsGgABxcn57A2JdDVKWVGDQQ3zTsdHmrppSTAzrIjDoo0eWc9EbeezBkmT8MrA8y2rosBE1E5DfFEu4cpb0PnUrZZd5mfcPOOGbBoAE+5ODmHLFOgU8Bz36E7jd4NCYz1CAG8R17ZlW3VDvqW8jZ55z0Rt5as/3zWRdp1Hl7JgIkoUteuXRNNeS+EWacDZw2C8OvyNoBblebSk3OWi3pxo3Cx+LWAXKMGQm30xgiBs2fPiiUMp8zi+vy93H1LG+2Iy2t4eDjTr1vQ23WdGTNMRDXgcoHpWrQvNK7WomwEWaY8YwbembtrcmoOXCzqxU0RJ+cClGfUQHCN3q5GCGTtW0IJOY8yTd5ryZNlovUxYCIqrjIN37DD0VqUXvI2uGI5r/balBQW9VrvnAu0NAc9s0ydh4YxCQz6lixLcViqm/V9kbdvqWyTtzUXQ14d4hwmIke8BUzaN9giF8FF5R6mFDJMG21gXw03o/du2dUSrHfOudhtVhBKc73u3ME1ervoW8qzVNd1k3dsPD8sMGAiqroQynFZ16Jk7Z/olrd/A71M1xds+pkAQVPeDFweODEX6EDL8fVKz51Gb6+rgVZDedO8FLcjWymuSN+SRpN3bNjDRFQPDakxy34HZKXOncs3R/HdObtRA2gCf+1Z20ngge6awxP4I9+IzlTwoOpGLjJ1mOadZfVJ0b6lGIIl1+uTQsKAiai4XEPPNFlM+c4r61iBojcBlObQBJ6V9agBTAK37GcKeKDlyBoDLfHXDQnIiRMnzEtxVn1LWNsSct+SJY4VIKqHyvQwFdlCrj1WYC2YAJ7n1JzlqAFAL5Nl02vAu+ZOprvmQhwjgOyM9SDQ15/NNpurSN9SXYMlWFhYkFgwYCKKUAhN31mVCZgApbk8/w7LUQPt0twztqMGkCmxWKxcEr4B6am54EpxLkYIZJn+/sm31e9b6q9x1MCAiai4hngSQqOkq5ktRZ7ArUcNWO+bO3LkSIjNsGNJdgn9TGMSCBerT7KW4tC39M5cNfuWug1stnu48oCn5IgonxB7mLqhlynvqIE/z+VbcppH1qGFRbnImhQ0JgHB+8KybwmT3rNO8/7jZ+xbKsLzQQcGTESONMWTsmWu1WKY8Jt31MBH8/dNV6dYl+YCngIeBKw+OX/+vFj6VcYRAuhburnIvqWqY8BERFEoMmoAR7utRg24Ks0FOGrAO3xN0OtlCSMEsnx/69C3RCsYMBFRNIqMGvjjZ4tixbo0F/CoAa/Q+2PZ48W+JXe0s+WWGDARRUj7IrOwHH5JLpV31ABKJe8Y9TO5KM0FPGrAC4wPsC7FoW8pSyCct29pdHQ0+lKcdvnec8DUzPOLGTARFTcrnsT0VGYh76gB9DJZ9TO5KM0FOgXcC+tSXNasYZG+JQT7sct62KOKGDARUXSKNM2in+mm0dX+1V3bTHfNofwU6KgBp5BpswwcEfxmKcXN3rmfu28JS3V9leJCHg5ZZNekolwfKAZMRBSlvKMGUEr4w40ls/lMv97d3z6GbgXDLAMdNeAEAqWzZ8+KFWSVspZX3/4iX4kXfUv79/vbU3z79u1Mvy5LZi3rhP9IMGAionxiTbPnHTWAfpPff2azb25w6yZ5eYdtaa7OowYQdFhml179+VaT1Sch9C3NzmbrHhjYLLQBBkxExXmrj2in9mOYw7QW9DGh1JEH9s3hpmfhpaezrdAoA6fm6laaQ6Bk2eiNMtzen/QOdnEqLk8pLoS+paxBJg4wWGZI1xPTiUEGTETF1buhJBAodeS9KeGmZ7Vv7vVnt5neeAKeAm7Gcv1J1hECkHeEgM++pVTWgCnreIyYTtRm0MzzixkwEVH00M+UZz4T/PGzuyZDLVGae+3ZbDfgoupUmsNEb6tSXJ7VJ9fn78mn32YPsn33LeXla0cc5zARkSnti0wVGjnRJ5LnBpUOtbRoAn/+yS3mowasj9eHwDqblrVvCaU4nLLMCu/DUOYt5SnJ+eA5YGLTN5EjTfGk7nOY1pL2M+X52mCOznu38pVZsrKeAo5Tc1UfaGk5RgCrT/YNZgtqP/hqOVcpKm9fnaXMJbmM8X3FSnIMmIiontAvkvdmZTXUEk/sf/tcv1iq8kBLyzECKMVl7VtCdukvX+crxYXUyJz1gEC/pwxTTBgwEVGlYG0Kblp5YHWKxVDLXQOb5JVddv1MVd41l7cnLY+Xfrolc/bvrWb2MRQIlI4fPy4h0W761uY5uMw10ZMBE1GE6rxLLgv0j+TZNwcYamnRBG49agDN31VrAEej96VLl8RCnlNxaPTO89nA+y60cnnWDNPQtt7v0apdJxLZJnp2MGAiKqivr68pnrCHqbe8R7pxM3j7C5uhltajBqqWZbJs9H55R/ZSXJ5G77GxsfYrNKE3fceEARMRVVKRJnAMtUR5ThtGDbxqWJrDTbEqDeCWE73zNHq/f2s5d3YpRFmnfA/aTsJYF0tyRGSOZbneihzvRgP49QX9JnDcrC1HDSArE/sEcOsxAllLcViu+9FCvI3eqTzvhywZ0IrtkUOVgKfkiBxqiieDg4NCvRUZavnu3LJJPxNu2FalOdwcY88yWc6WyjPmIc9yXQRKoWaXQm/4jg0DJiKqPKxOyTvU8q2m/lBL9IlYTgHHMfxYs0wXL15svywgIMDJuCzyLtc9d+6chEqz4dtCbL2YDJiIIqVdAqhiSa5bkSbwPxv0M2EKuNWpOdwgY50Abppd2pEts5d3uS6avPOexnQpa8CUteFbe0m354CpKTkxYCIqpykUBQRLebMBH83fNxlqaXlqDkfyMQU8Jpb74nYObMrV6J1VyKW4VNavaX/GSGCpWi1MuTFgIooU98nlh2wAynN54NTc7HfZG4CzwKm5l3fYNYDHlGWybvR+I+O0dcxcytPojWApxEbvbhxaqYsBE1E53hpGOIupGDSAHz16NNc/8/bnd9WbwDHQcke/zY0qpmGW1mMELJbr4kYf4syl1bQDpoqV7ZuSEwMmonLiPsfdpU7pdpwmy9vP9MfPFkXbq7u2iRXLrI0W3NDPnz8vFvJM9M47c2lqakpiEHrTd2z4VSKKlPocphqU5FL42uGml+dreHOxpT7UcviJzUkWZLNYQIbJ6tSZFst9cWj0zpI5yVuKw+85llLStWvXMv26rE3f2hkmluSI6sVbhkn7YrNoFC+FeswdX7+8/UxoANduAreczRRyL5P1vrgsjd4oxb0zl68UF9py3fXgc5f1s5e1NKzd5+h5llxTcmLARFROZXqY8j497hjIdvkI+cQW+lDyZjnQ63JTsX6JBvCsM4LyQskLPUIhsiwZvtkYyPTr0JuWZ9ZWDI3eqRiGVnruw8x97WbARFROtkVNBrQv3HmfHh/LmMYPfZAiskx5ZulgFs0fbiypDrXEyhSrLFOIwyxDaPT+4OtlufFd9vd8qMt115P165unf6liJTkGTER1oX2xyZs0yfpkGsPkacxnytsE/vvPlkQLekisskyhrUzBjRxBnAUEnVkavVGKe3euWjOXVrPIMFUsYGpKTgyYiMrxVm/STmcjc5Ina9KfMcOUdVu6T7hwYxJ4HjfuPGiv0dCCLJNVeSSkLBOyS1a/FwSdWb6GbzXzBbsxleJS2gGT9pTvADDDROSY1x4m/aAp+6/NODzZrPSiDbvm8jaBY42G1lBLZJlwsstCKCtTQhgjkHdXXGyluFTW3sGdGXsRLZZRsyRHVCN9fX1N8Uj7lEmeG8lgxt6HWAImQAN43ibwP36mN9QSJ7us9szhVJrvYZaHDh0SK1mCzby74mIsxaUWFhYy/bqsIwWW7lcuYGpKTgyYiMpriic+G7+r0vS9Gm6QyDZlhVIFhlpqNYFnHbZYhM9hlpb74p5/akumMQJ5S3F5e9tCkjXD5KskF8CmgmwRZRcGTETlVWYW060cw5jyNH3HFDThQo5+prxDLd/Lsbh1IxhmaZVl8rkyxTJYe2WnfikOmcY8pydDkicwzbwWRXkHte+AKakOsCRH5EFTPFHvYarxSbluRZrAMdBSq5+palkmBGk+xwjUqRQHWb/WWfuXQHsTQGzlOGDARFSet2ggT+koi5s5I6b+jFeQmPqYUsgu5B36mHcQ4nqsV6a4zjJZDc/M0ui9mHw/8pbi8q7NCU3Wz1vW/iW4qbwKwPPXtykFMGAiKq8pnvie9l3Fxu9uyDLkKcvg66dVmrNcmeIyy4Tg7PLly2Ihy764927lK8UhuIu1bymVOcPUn/39pd3D9OKLL0psGDARledt0JB2hgkXxTw3l6o2fndDaS7PDRSluU++Ld/wYbkyxWWWyTK71KvRG9+Hv3ydvUwaeykulbnhO8eU71tL9R5aCQyYiMrz2vStnWW6adD4nXVreoiKNIG//cWySmnOcmWKiyyTZXbp1V3bNvz/8y7WBZTiqiDrA0rWz++cwWZuBkxE9eR1u6z2hSfXLKaMF9yLFy9KzJDJy5N5QKbuT5+XnwJuuTLFRZbJKruERu+9T27c4/V+UhqtWykupb1HzmIGk3Z2PKdCD7kMmIhK8j28UrsXIM9pGDQnZ4EnXt9DE8vKe8z8k2/vq5TmLFemWGaZcNM2613q0eh9ff6efLRQv1JcKus6osGMhzFvLunPYPLc9F3oIZcBE5GOpniinmHKcY/HjTzrzTz2gAkwyDBvaa7sFHDLlSmWWSbL7NJG7zmU4t7/MnspDt/PqpTiIGv/Et5XWcu9FRspAE0pgAETkQ5vZTnti8/c9/lmCfUqjaSssg0u5c1EoDT39hf5jrSvxXJlikWWyXJnXK/sUp1LcZC1fynPDCbtkQK+v95JVaDQQR0GTEQ6muKJdi8AbjZ5Gpaz3siRyYj5tFwqb2nuxp0H7ZNzZVkNs7TIMvnMLuUpxeH7ePz4camSrP2CeWYwaY8UGB4eFo8KP9wyYCLS4e0YmMXT2kKOw0VZ+5gg9ubvVN7SHEpEZUtzlitTNLNMvrNLWeFzg+9j1WTN5O7IMYOpYiMFCj+1MWAi0tEUT3Dj1n5iy1OWw5Nq1ht5FcpykPdmq1WaiyHLFEt2CaXVKpXiAMFq1h6mrA86C8u6wRJ4PiHHDBORZ03xSPsCdCtnz8Lep7Idfa9KhglGR0fbr6w0SnOhZ5l8ZpfezjHGYWxsrP2qmqxBb56HnPm7nMGUYsBEpKAzWsBbg472Ed25pXwXyawrFqowXqCbj9JcyFkmX9ml2Tv35cZ32d6zVRsh0C3rA0muhu8l/QyT54CJGSaiADTFE/0MU76LJDIfWY8oVylgQrDkujRnmWVCdgjfH5R18jbo+8wuvTOXL7tUtVJcKmvJ+4Uci521Rwp4LsfBghRkM0KWqJ7w5OLlamC1Uy7PwMTnn9rcHhjYS1X6mFIoy+Hk3JkzZzL9+rQ0h4GURSGAeGu2fE/UapOTk+1XN/THbd++XQYHB9f8ZxA0IgCxWn/TK7uE91zWpmT8Po8ePSpVlOcU6q6B7AHT/LL+0EqfkmpA4QwTAyYiPU3xxOKpDbNXBrdmv7Ai63E9w/U6vbD7vnBqQokH5ZCsKylQmvvFk5tlqOAE7zTLlLUMVQamRmedHG2h58m4HEMqq9joncpajkPwmeuEnPIMJu3NBDmVmpfHkhyRHm93FYuTcjfu2AywhNVZjNj5KM1Z9TKFJEt2KespLgRKVWz0TmmfjgOcPNQ+JRfrSAFgwESkx9u0b8gzTDGLhZwHuvKcvLl06ZJUDb7+KM1lVfbUnGUvUyi0s0tVlWdvX54Hm5vf62cwYx0pAAyYiPQ0xSPtC1HeFSmQdbxAkabiGOQt+ZQ9NVflLBOzS9nlOUgx/ET22z4WSGvzXIpvSgkMmIiU9PX1IQJoiifqS3hzrkiB5zM+vSJYylpCiInr0lyVs0wImDbC7NKPsgZMeU6zgvYOOXw+mGEiotS0eKJdkoOPv8n3hImMQNaTdVUaYtmtSGlu9rviT/K//Gn1zu70CgSZXXqYRTkOwbz2ShSLa1ROhUcKAAMmIl3e0iYWjd9FTshkvShbzewJQd7SXJ4p1as9/+SWXFmDGLB3KTtkarOezszT8D17R78cd/DgQfGpzEgBYMBEpMvf+WvR72P6uEAPw94cZbkqDbHslrc0h2xJniBgtZcqlGVidimfrJ+hvOMELEZWeM4wNaUkBkxEuqbFoxD6mPL0SWjsLwtV3tIcTswVbQDHEMyqZJk2yi7hmDuzSw87e/Zspl+XJ7sEFexfakpJDJiIFPlu/M6zDDarvH1MgKnfWeSZThwj3LCzngpCz8i7c8VKcxjpsG8o3w0xRJrZJdycq55dwjyzrOW43TlOx+G9qJ1hCmAlSul2CQZMRPq89TFZXJSKXDhfGMx+8866UiRGCJbyZDlwjLtoA3ieht5QbbTjDNmlj+azf21Onz4tVZcnQzv8eI75S4v65bjDhw+LZ9NSEgMmIn1eG7+1+wSKNH8iU5D1tBxKClXOMqEsl+d7UrQBHF/zX0QcNOH9sm9w/V6sPNklfL0DOJFlKk92aefAplx7IS36lwLIMJVedsiAiUifzRbSjLR3NeEmVWQ9Qq85OqkqN3+n8mSZ8LUuOgH8P+7aGm0v08s7Nu5dypNdytNwH6s82aW8oycsTsj5bvju6+trSkkMmIj0eZ3IaNHHVGTib55G5KyNq7HK2wCOxua8zfYwuHVTlCfmNLNL6Fuq6oLdVJ7sUq+v7Vq0M0wBZPtUrskMmIiUdZ5kvNWYkPrWXj9QpKcBjcjPP5XtEoMMUx2yTHkawP/8b8XGDOCUWWzTvzfKLkGe7FIdTsblyS71+tquZpFd0s56F6AyJZcBE5GNafHE4vhu0Z1SL+R4sq3q5O9U3gbwjxbuFW4Af+O5/lwzd3xC7xWzS9lZZ5duKk/3Bousd04qbRIMmIhseC3LaU/URcajSB9Tnl1nmPxd5eZvyNsAXmbMwN/9zWPBL+fFDf21Z7Zt+Gs4d+lhltkl+OSbYv1zG/Hc8D1fdsJ3igETkY1sy52MWPQMFM0y7X0qe/M3np6rLs9N/eZi8QZwQMD0978YaPc14aRUSHYO9MmbjYENT28xu/Qw6+wS4D2nyaJFIKdpUVKtBUREgWi1WrhCzCQvb1eK7du3q2Zsnk8Cn7/9q225/zlkp3776WKmJmbc8K5cueL7AmvuxIkTmedPIVv0n/56QIa26lyu26ce77ZkMfl+LCXfm/nONPf5u/hraf/99s8f6JdmAAcBEMDh1etQwG8//T5zwDQzM1P5gGnPnj2ZA6bXnt2WO2BC/9Jbs0ui6fjx475nrY0nGSaVUyXVW3NNFABM/E6CJqSBR8QTPNlpNlIXbQZNp1BnyZTgZoCL68TEhFQZskzIFmQJaBFwvv3Fkrw5PCAakHnIOpMnDa7W//8f/BBw3fz+xyBstf7kPYAM147k9eJQttU5eecuMbv0o6LZpaJZ5I1U5YQcMMNEZCQJmI4nP3h7tELggUyGpt80+nNNDE7lfXJFlimAQXem8n5/Xt21rT2qoS7yZJempqYqP6jSOrsEv2suqo8U8Jz5Q//SdlHCHiYiO14HWJqsSblT7GKap/kbtAO9EKEBPM/3CM3PRZfzxoZTvR/mIrtktT/Oc+ZP9fANAyYiI8mTzbR4nMeEm4h2L1DRY+6QZ9owSolV3jGXyrPvLC3N1UGek3FHjx6VqrM+GQcW85e0T+sWMC2KGDAR2ZoWj7QvWMgwFW0Gfv7JLbmyTLhJZH2qjlXeCeD4+pc5NRcD3LizZpeQvcDpuCpzkV2CivYvTYsiBkxEtqbFI4sL1sffFL+wvrIr+yk7NEQfO3ZMqg4N4HnKFlUvzXHu0sNcZJegyDT/XnwHTEmWX3W8CwMmIlte5zFZTNgt0+ewa2BTrmGKKM3VYQI4S3MrkF3K8/6qehYSZWkX2SUsN76lPOHboiUgp2lRxoCJyFBnwqy3PiZkLoaHh0VT2dQ9TnoN5pgphCxTlSeA46aYN5NW1dIcmr3zQDCB02M4JFC19wj+bHmWUpfJLhU9zLGRAPqX1LctMGAisuc1RaKdZUKGo0zzN+Yy9VqH0Q03wjxliVgge4an8KI3e5SurIZL+oAsx0cLxd5XCDoPHDhQqUnxmEXmIrsEFg3fAfQvqV93GTAR2fO6V86iLPfpN+UusBgzkGemEG6ImkM4fUJwhEbvQ4cOyeXLxSu2CFzfmcve7xO6skfaEVwgU4dX7GW6q1evtncrZlUmuwTa4wRQigsgYFIf68KAicjeJfHIYpfT9YXyT6ToZapTaQ6/d2QNUELKU2pZz0tJwPnqrrCX6+aBDAkGLg6WXAGDLBOC0ZizTUeOHMn8azWySwvL+vvjPJvGtgVRxoCJyFjywW2Kxz4mBEvaFzBkN/L2m6yG0twrOW74yBrEWprDzRslI/z+ywZ9uEFiaS1OHGZZMRIT3PjfbPSXnmgec7YpzxgBwHuhjLKf47UcPnxYPDPJ6jNgInLDax+TxQUsz/Hv9WA20y+ezL5qBaU5lCtikfYpady4ERwhK/f3v3gs1zyr2Axu3dReA/Of/3qgdtmmvA8F+4a2lPoa4cHnk2+rN05AjK63DJiI3KjceAGk8TWeTv9jkmXKkylBuSL00hxufLhplO1TSqHn6+/+ZiDXSIbYYVkvgsOyf+Y024TvRejZpryN3mW/Njjxqn1wACdzPZfk5rXnL6UYMBG54TXDZDFeADSyTMgovLwjewkGN5Q8PR4upQ3d6FPSCJQQSCLb8pvh/tLZllitZNXKZ5uQ7UNZNNS5Xnhf52n0fumnW0t/TSzKcQH0L5mloBkwETnQaUCs3Gk5ZJnKjBhIvfT01lxlJtz8QlvQi1IhbsgaDd2wNylV/pe9A6X7eaoAQbVGtgkBLYJtZHJCgwxYVgiUyr4vMMZB+3QcBNC/ZBYRM2AicmdaPLIImEAjywSvP5uviRn9TKHc+PD7QLCkUfJJm7rfeK6/ck3dZaXZprI9XOgTCiloytvo/evd5Rq9wWJYJQTQv2TW/sBPI5EjrVZrJPlhSjzavn27Sf/Pbxr9Mvx49ubt9SD4yhuAXbhwwSwY7AU3OSx/1Sq/vfTTLe0XA6Xeri/ck/dvLZc6Eo/3zblz57yu8MB7KE9/FRq98wx+Xc9vP/1efZwAPgv4enqE/qXtYoQZJiJHkg/ytHgcLwDHjx8XC+/O3RUNyCDs6M8XLKCh18fJuXS6tEawhJlKKL/hz89gKZt0BMG+oeKBOvqZtDKDReDhJU+wpNHoDXOLD9SDJQigHDcthhgwEbnlteMUDckWT9M3F1tqu81+vTtfKSrtS3F508PXUWN/GU6/VXWmkgvobXrtmf5SAy/TDI+PoBsZrjzvW41Gb/jwK/0J8ThY4ivT28X0+sqAicgtr+MFECxZZZm0dpvhJvjGc/lKDunJORfjBlB2KNvYnfYp4fRblWcquVI225QGTXlOqZWFHqo82UmNRu+URbN3AL1LYHp95SMNkUOtVgvpndviEYIKHHu3CC5+2V7XUb6/Aj74ejkp9eV7ErbsocDXC0/QZUpwyCL9asdWnnwzVLa36fTp0+0MoiUES3mn1uMQwN4ny/cJfvzNPfnjv+qU0LtduXLF90iBZl9f3x4xxEcbIoc64wWmxSPLLBPKcjeXdJ5eMWogb2CB00YWp5/SDETRYCmd0s0xAfaQbcKU8F8UDC4QyFiWd9E3lTdYQqO3RrAEGnsgV0OgFML+ODHGgInIvWnxzKqXCd6Z03t6RbYqb8kKNyM0gmsp2+Oyc6Dvhynd7FNyA3sKf51kZIo0SKc9cRYZ2HTqeB5ajd6A2UuffqsfMFk9gOVk3h/KgInIPa99TGCZZcJ8F41hlimUIvI2uiLTpBE05T3yvRpOv/3nv36stlO6fUOgUSTYQHCsveg5fS/lCcQQYKPXTev9U+HZS2B+XeWnmMiDVquFPiZ/w1/EtpcJF3hkVbQyKgvJk/Hvmku5+1LK9DSlR76LZJbw53/9WTZ0h+Ljb+/J25/nP5QwNTWlEgwUfS+9sXub7P2JXgn3d81F9YZvfH3wdfJsuq+vL/uo9IL4aSbyY1I8s8wyIbD54Cu9PVU4Ofe3BSZfl8k0FZ3vhKwSgkUGS+F4/kl8T/JnKvEeKPtAUTRYQmZMM1iyWoVy9OhRCcCkOMAME5EHIUz9BsssE/pIsMZCs28Hy0Lf/mKlRwr/3qwZg7yZJvR4FRkdULQERG4UyVSWyaCk4y6KBEva76M/fb4kHyk3fOOh6/Ztr4d+U9s7B2pM8RGIyIMQpn6DZZZp8X5L/vxvugPycFoovZHkKa+kmaYsgSFO2RUJltCgzmApbMhU4gRdnkwTFj1jqnteRQ8LYJip9vsI2aWPDE7HBTCoEiZdBEvAgInIn/xXYQPIpmBKr4WPFu6pNoBD0advBE29GriLzMdBpguTpjkuIA7IfOYt7+YdNVD0sAACOY09cau9/bn+3CWoUzkOWJIj8qQzxHJGPDd/A56icYG3gGP1OCmmrciiXkBwiBLL6iAR83FQPslj5RRTf/Jn5LNnbPIORsWcIQxn7KVMsKR5Ii7VXcbWhM/PzMyMeGY+rLIbP+VEnnTSyJMSAPRpWB0N1twz161opgk3MixcRYDU/fewGy4vBkvxwmDUPI35KK31GopaZgxFkfEZWRR5qMgikOzStDjETzqRX+WWkinCSggruGjPG2xHLxo0pcMJ0xsgfsx7k0MZjsFS3F5/dlvu0hyysWvB30cgXiRYsnovvffl3cIrYnrBQYoA6A7L6oGfdiKPkixTUwLJMqHkYLVDCw3gb3+xJBbKnCjCDRCNq3mXruK/hxUcFLcii57XOjyApvC8QylTCJYs3kto9P6nL/Uzu4BstFXfYw5XO9dPZxgwEfnn9ClpIydPnjRbmaI9AbxbmaDp0qVLuX49RwdUC06l5WnYRwap+2AAspNFyrlgFSwBFhBbCaQc5/zQDAMmIs9CyjIhWELQZAWndfJOW87KRSCDoZQMlqoH39M8/UPIKKEHDmWpIitU0pUnVsHS3KLNGAFAZqkuq1BW4yk5ogCEMsgyhV6Mostme8HTPGYWWcl7+ikrbItHYy5VE4KM/9+/LIo165OVi8kDyT/+86JZ7xIyapYPVRldTB408x1pVcAME1EAOoMspyUQlg3gODFnVZoDnH76T3+tezwbNznLII/825UEMNbZQxdjKN67ZdfojexSAMESXBQPGDARhSOYXibLMQPwx8/umpyaS+HmhxuTVtD0qx1bTY58U1gQMO3ot/k+pwupLYMlZFf/8rXdw0ggwRJmL+U7paGEARNRIELLMmH3mlUDOE7NvdVcNOtngnQNxi+SUlq5f08fp3jXyK9396vuPwSroZTdcCrOohSdwinaQEYJTIsnDJiIwhJMlgnpd6s9c4Cywe8/sxk1kMIajF8/11+q1IIbHdUHAu2Xd+gFyDiFh8ySdbD0VtP2s3ThwgUJxKR4woCJKCChZZks98wBRg28M2ez56obAqZXduUPmvKenqJqyDsFfP1/zxb5zbB+xmq1d/5t2axvCZBZCmDuEqAc5/x0XIoBE1F4gskyoSSH0pwlNIFbrE5ZDTdB3LyyBkD4dRwhUF95p4CvthKk2x8UwDTvT//drm8poEZv8LqwnAETUWA6WaZJCQSavzEN2xKyTJYn51Ioj6AZPEtj7693sxRXZ0VLcwiyMJDSRbD9ybf3zKZ5p6yzzDnlmzKrjLlmogC1Wi10W2MVuE3XdU5Y+bBnz55Cqx+yQr8RxgEMOSqBYb/deotJUUp5hWMEKPG75qLc+O5Bpl+LrCRmdbnYMZj2LVmW4hAozczMSCCmk4fJQ+IRM0xEAUouDIhMvKafu1lPAAcXJ+e6IQPwt89te6RE1z4V91OW4mhF1tJcehLO1UJm62AJAirFwaR4xgwTUcCSTBMe7xoSCCwYXW9bu5bdT2ySN4fdlcMWkif1399YkltLKzcfy/1eFKde0+NR6sUSX+vm7hT6lqxLcWj0tu5fzAEPkHs6D5LeMGAiClhoK1OwLgVrU6xZr09ZC8pzeGJ/7RmW4uhR65XmXJdvZ+/cl7dmbUcIIKN85cqVkHqXJpNg6Zh4xpIcUcBCGzOA4XVoArXm6uRcN5ToGCzRetCbtDqDhKDeZbCEvqW3v7Afw4HVSAEFSxDEyWEGTETh8/5k1Q0XUxfbyl2dnCPKAocSXnt2pbcNgdMbu7c5nwD//q1l874lLNcNZKJ3CtmlpgSAJTmiCCSlOWzDtU/tZITTcijNNZtNsYSb1N//YsBZbwhRLyjd7n1ys7Pm7tT1+Xvm2SVkkFGKC8yeUAImZpiI4oCUtNeGx27ocZiamjLbNZfCybkPvnJbmiPaCEq3roMllOLWG4GhBSW4gNafpILJLgEDJqIIdE6HBDMBHFxdYNHL5GrUAFGIXJTi8FkOrG8puGseAyaiSCRBE+YyTUtA0MuEniZLzDJRnaEU99GCbS8f+pZQjgvMmZCyS8DGAKKIhDZmIHXixAk5c8ZuziZ7maiOXEzzDmzeUgpLdvdIYHj1IYpMEjShDma73K0A66GW6B3hMlyqkzxrWYpACQ5N3ta9iAWMJQHTeQkMS3JE8TkhATWAp/CUatkDwV4mqhNM87YMllwd3CjgYojBEjBgIopMp64fVDMkIFiyvACjl+njbziXiaoPpTjr1SfoWwqsyTt1QgLFgIkoQp0G8KsSGFyALfshXE//JvIBfUuW0Ld0/PhxCVBQYwRWY8BEFK8gn8RGR0fbT68Wbi4+4PRvqjScirNs8sZDzcmTJyVATQkwc96NARNRpDp75uyOppWAC7LVzrlbi+xjouqyHlAZ4J641ETI2SVgwEQUt6AmgHfDhdlitotlIyyRT3NJBtUyu4SHGGSAA9QMtdG7GwMmooh1JoAHtZy3m0Xqf/YOS3JUTR/N2/XoBVyKg2D2ZG6EARNR5JKg6aIENgE8hadZ7fQ/TstZr4kg8uGTb+0eBgIdIQBo9L4kEWDARFQNyDIFWZqzOI3DLBNVjWU5LuARAk0JvNG7Gyd9E1VEq9VCWtt2sVsB8/PzsmfPnvaPWl56eou8smubEFXFO3N3TcZmIFCamZmRQAU50Xs9zDARVUSIy3kBZYCDBw+KprklNn5TtViV41CKC9SZmIIlYMBEVC1BluZGRkZEE0cLUJVYleNCLsUlwVKwE73Xw4CJqEI6c0yOSGC0xwuw8ZuqxOJ0XOADKg9JhBgwEVVMZ6DlhATEYh4TG7+pKizKcQGPEDgR+oDK9TBgIqqg5IKEkyfBTAFHH9Pw8LBourXIPiaKn1U5TrsMrmSiMwYlSgyYiCqq0yMQzIJe7Qs44yWqAotyHD5rAfYuXew8yEWLARNRtaGfqSkBsCjLEcXOohx39OhRCUxTAl0WngcDJqIK6/QKoMHS+8k5zTlMRFVQo3LcoVj7lroxYCKquM6Fyvu+Oe2AaXAr5+5S3GpSjhuvQrAEDJiI6sF7L1Oz2RRNA5sZMFHcbho04gVWjsNwyrNSEQyYiOrB+xljZpiIHnZzsdLluKZEtCcuCwZMRBXXarUayQ9j4tnCwoJoYoaJYrf0QDdgCqwch76lSjUuMmAiqrAkWBpKfghimRRLckQP69+k+x4+fPiwBGKiKn1L3RgwEVXbRPJqSAD0S3JCFLWBzaIqkJOozdjnLa2HARNRRSXZpbHkh+MSgKtX9XvOtZ/OiVzbMaB7C56dnZUATEhFMWAiqqBO31Iwy6QuXtTdhsCGb6qCx5TLyoFkmCY6rQCVw4CJqJoQLDUkAOhdOn/+vGga2sZLF8VPO/C3yOQW0JBAMtvaeNUhqpjk6W5cAjgVl5qcnFRv+CaqAu2AKaBp+uOdLHelMGAiqpDQSnEW2SVgSY6qwCJgCiRoQknunFQMAyaiasEIgWD6B6yySzsHeOmi+FmUlgPKMo0kD3AjUiG86hBVRHJxmpBA+pbAKrsEDJioCvoN3saB9DGlKpVl4lWHqAJCK8WBVXYJZYzdj/PSRfHD8NWKNn6nGsm1KajrUhm86hBFLqRp3inL7NLLOzixkqpDO8t09uzZ0A5ZjFdlzAADJqKIdS5EZySgUhxYZpf2DW4RoqoYVO5jQg/TsWPHJCC4RlUiy8SAiShSXZmloxIQZpeIshsyOPE5PT3dfgVkvAoN4AyYiCLUFSztl8Awu0SU3aDRENbAskwQfZaJARNRZDoN3lckwGCJ2SWifKyeAfBZnJiYkIBgzEBQ2fC8GDARRaQTLCGz1JAAnTlzhtklohyGn9hstkgaDeABzWWCMzFPAGfARBSJ5EIzKiuZpYYECAt2cYG2wOwSVRVGC+wcsAmYECydOnVKAtJuJYj11BwDJqIIdIZSXpCApnh3Q1bpxIkTYoHZJaq6V3ZtEyvI+gbWAN6QlWtZdBgwEQUMT2LJCyW4oBsm0SthNfuF2SWqul0Dm+SXT9s9FASWZQL0M52WyDBgIgpUckFBUzdKcCMSMJyKs2r0ZnaJ6uLln20162VChgmf08Bg1MC4RIQrv4kC1LmQIKsUdK0fWaVDhw6ZZZdee3YbAyaqjQ++XpZ355bFwtDQkMzMzLR/DMyhvr6+aYkAM0xEAemU4CaTnyJdHXxj5NjYmFmwxOwS1c1LT28125OIBnD0MwXoQiwn5xgwEQWiqwQXxawS9C1dvnxZrLB3ieoIpTkr6GUKbM8cRHNyjgETUQA6JbhgRwashouuZSMps0tUV5jLtG9os1gJcAI4NJLXldAzTQyYiDzCBaJzCi6qEyPoW7LE7BLVmXUDeGBjBlKN5DWTXA/PhRo4MWAi8qDTqzSR/HRGAj8Ft5rlCAFgdonqbnDrJnnpp3afAWSZApsA3m1MVkp0wZ2gY8BE5FjnQoBAKbpllHgytZ7p8mZjQIjqDnOZ8PBgAQ88gTaApxrJ63RyrZwJaf8cxwoQOZJ88EdkJUgakQhZjxAAlCIsm16JYjJ75768NbskFjBe4MqVK9JoNCQCzeR1zPf4AWaYiIx1ym/nZGVp7ohEyroUh2ZXBktEP8JnwnLMQIATwNfTkJUyndf+JmaYiAx1FuYiWIpy2WQKU4ItT9eg9IBSnFUJgihWC8sP5LefLoqVqakpGRkZkchMJq9TScapKQ7x6kRkoPMUhEBpRCKHrNKBAwdMm0Q50Ztofe9/udx+WUCwhKApUgiaJsQRluSIlHXNVBqRyCFIQt+SZbC0b2gLgyWiDaAB3HLMQOAN4Bs56bIxnBkmIiWdSbXIKo1KBaTB0tWrV8UKS3FE2VxfuCdvf35XLAS8Zy4PXKiOWJbpmGEiUtC11qQSwVJ6Is4yWIJXf76VwRJRBsjCWjaAHzlyRCKHa7Dp4EsGTEQldRq70QTQkApwFSy9lJQZ9v6EpTiirCxPkaI0d+LECamAMVk5UadepmPARFRCp1/pgkR+Ci7lYtYSIKv0yq5tQkTZYcwA+pmsoJcp4n6mbo3kNZlcny9oZpuYCycqqLPaJLpp3etxFSzB3//iMZbiiApYvN9qjxlYetASK5GOGlhPU5SGXjLDRFRA1YIllN9cBUsoKzBYIipmYHOf6Z45QD+Ti2uBIw1ZKdFNSEkMmIhy6vQsVSZYQu+Cq2CJ07yJyrN+6HAxTsSDk2WDJgZMRDl0DaSsBPQruLow4gL/2jPsWyLSYP1ZwgNUBU7OrXays6aqEAZMRBl1giWchqtEg/f4+LjTUzEv72ApjkiL5Z65VIVOznUbKxo0MWAiyg5luIZELl11cvbsWXGF07yJ9L3+7DazCeCpCp2c64ag6bTkxICJKIPO+IAxiVzar2Q9Y6kbskqv7mLfEpG2wa2bzBvAAVkml9cMR8bz9jQxYCLqoVOKi77JO+1Xcn365Y3n+s2fgonqCnOZXJS6K3ZyLnWyc4gnEwZMRL0hWIq2bylde+CjFwGneXYO8DJDZAVjBlwcpkjntFXs5BxkXqXCKxnRBpIP0ohEXIpDGh39ShcvXhTXECxxhACRPVfjOhA0HTt2TComXZreEwMmoo1FO0LAVwkOGCwRuYXPm+XalBQeviYmJqRiRjp9qhtiYwHROpIP0JhEGDAhZY6nQB9ZJWCwROTPP/zz93JryW5tSmpsbExOnjwpjUZDKgK1xgN9fX3N9X4BAyaidSQB04xENkYAJTifzZmvPbuN4wOIPFpYfiC/ay4lP9oHTQiWjh8/3p7pVhHTScB0aL3/kwET0RpizC6hBOdzyByDJaIwzC0+kLeSoMlyQW83BE5Y2FuRbNOh9Rb1soeJaG3RjBFANgmbxX0FSxgZ8MZuBktEodg1sMnp7DNcg/bs2dNuBajA6IF1r/0MmIhW6WSXGhI49Cqh+RIXqsuXL4sPCJbebPTL3p8wWCIKCabru+4lnJycbB80wY8RG+mcjn4EAyaiRx2VwKH8hkDp1KlT4ksaLHHOElGYEDC9MLhZXEpHD+D6FHHgtGaWiT1MRF06A8xmJFDpMkzfawowWfjNxgCX6RIFbvF+S37XXHRycm4t+/fvl3PnzrV/jAxOzD10oeWjIdHDguxdSvuUXO+BW8vOAQZLRLHAJPBf7+739nlNh+dG2N90ePXf4BWPqEuIowRQfkPpLYSVBC89vUVe2WW/hoGIdLk+ObeeiOY3zScZpu3df4MBE1FHp9FvSgKBpzFcXHw1dK/2ahIouZgkTEQ2rs/fk7e/uCu+IVg6evRoDBPDHxoxwJIc0Y8OSyCQVUIaO4RgKe1XYrBEFDcfJ+fWgodBZM0jaAx/6J7ADBNRR5JhQnZpRDzDU5fP02/dsNQTm9DZr0RUHX/6fEk+WrgvoQh48OVDZTlmmIh+NCKehRQsoV/pN8P9DJaIKgbl9R394XyuAx58OdQ9k4lXQiIJo38pvWj4hvlKr//VVg6jJKowlzvn8hgaGmrvpwuov+lMkmVqr1FgholoxYviWQgXCIwM+Lu/GWCwRFRxg1s3yd8+199+QAoJTgMjy44RKiGcDE6Mpj9hholI2hmm08kP3lZuh5BdQgnu5R1bg7uAEpGdUDNNgGGXV65ckQBsT7JM88wwEa3wOobWZ3YpXZ6L+UoMlojqBZkmrDjaN+R2hUoWGHrpa6n4Ku3Tcrw6Ekk7w4THGC9Bk8/sEkpwbzzHqd2xwRDCj+bvyfX5++aDCHc/saldot35WJ8MPx7eTZX0hJptmpmZ8X2Crt3HxEYFohVD4glmLvnAqd3xQaD07txdufHdA3Hlxp0HyWtl2CEykMMIoJ7c3J7pQ9WCbNPf/+Ixub5wT96/tRxM4IRZTZ57PBv4Hz5WEkk7w+TtyoABlS73w+Gmh91Sux9nRT42v/30+2BuYhhk+ioD7spCtun9L5fbWUzfcHLu9u3b4lEzyTDt4RWTyDOXc0eQVfovewcYLEXog6/DeeKHD7++J+996X/NBtlAtum1Z/rlP/+1/5I9TstNT0+LR+0KBK+aRJ65ODqLjeVYifDf8BRclOaTp/0Pv7onofmnL++1yzdULfNJYP7Jt/fkg6/utffP7RzwHypcvHhRPMIAyyFeOYnEb0kuSfWKSwiY0MA7gB+TCyEav/s3r/x8gMFUkEJbZbHabxr9bAiPDIKiW4v3Zf7uSvkN2cubiw+CHC8AAZTlGuzaI6oZnKq6cWflovjJtw/fhFcHU2WkDcIhPJ3GDNmlkIMlQGM4A6awLLY/5/eTIKjVDo6W7rfagVESIwUbFG0EmXi0L/g8LceAiYh+sFEwVRT6H1AO5KmqYnBaKXSz392Xl2WrkH9p+dbFyIm64RWMiEzhafbtL+62e13QRDrEmU+5uC7ZFoEME27O7I/zC034H37FQMkKc+VEng0PD0sd4Kb6VnOxXR6g7HZEUtKcveNuNhQ9DFmlf/yX79tN+FUOltDH5BMDJqIVTfFkZGRE6mIl27QklN1gJHUA9MuQe+hVequ51O5VqjLslWPARFRzY2NjUifINGGGD2Uz/EQczdQ4aUnuvXfrbpRN3HkdPnxYfEpK47MMmIhWuBu1vQoyTJ73JDmHCcLss8gGM7Ri2PXHpn73UIr7y9fVz+whs+T5wbI9LI8BE9EK++mRGzh37pzUyeL9VnsvGmUTeh8TsmBc4OxeDCcoNYyOjvp+qGw/UDNgIlrhLcMEyDJ5Xi7p3KffsOclq9BPFr4wxBlMPnzybT0eOk6ePCmeMcNE1GVWPMNFYXx8XOqCGzWy2/tkuAEJMkv7YulMrxBkaOtQ1kYpLoCWhWn8DwMmohXTEoDTp0/X5tQcynKUDUpev3w6zKAklqb0qlmqwecHgVIA2SVgSY4o1dfXh5RrUwJw4cKF9hFaom6v7tomux8P75KNKe5E2hAsTU1NhXIg5hr+hwET0Y+8rsNO4UTIlStXKt/TtLOfTcJ5vf7stqCmabPZ25+hbdW9fSPLHlCwNN15oGbARNTlkgQEqeiALhrq9j7Fvpe8BrdukteeDSejw2ZvfxCoVm0VTRooBXbdm05/wkcDoo5Wq4UxsjPJy+842VWwoRvZpvPnz0tV4GL/9794TKiYd+bueh3+ie/f68/2B1kijA1WBX3yzX25ufRAbi3el8Uch0fxa2Nv/Eb7AcYGHDx4MNT+zQNJhqndw8SAiahLEjRdSH4YlQBNTk7KqVOn2gFU7F5LSks8WVUcGuZ/11yUW0vub5Y4sRdaaTAmWGVy8/sH8sm399uvOkzpTqHdAJkjBEdpoOR73UkPzSRY2pP+Bd/xRF2SgGkk+WFKAobA6dKlSzI9PS3z817nbRaGqdBr9b7g7w1u65OBTT/+SGtD0PSnL+7Kp9+6mWeFAOnVn29loFsAgqTrtxEg3WvvfKv6glwERQiIsFg8/Tl+DDw4Wst4EjCdTf+CVyOiVZKg6bYEVpZbz9WrV9sZJwRP165da/91rEHUWnCT3vnYSuC0c2BT8upr9/HsDHzytUt/+nxJPlqwDZrQ3P3aM9vY4J3D7J2VDNKN7+5XbjFuxYKijexJAqZm+hd89xOtkgRMGPwxIZFCAIVXGkwhkEIQhb+ukjR4Qolod3JDD30atiXs5sPLAsYZhDoDKjTY7fbhV/fk+vz9SmaRMEQSs+IqFhStZzIJlo51/w0GTESrhNr8rSHNQKXBFBrJq5KReiEpFT3/1KbaZqC0gyZkk954rp/ZvAxQcvvgq+UkWKpmoJRCoDQzM1OXgGkkCZgud/8NBkxEa4g9y5QFAqY9e/ZIFaWlvMEtK8ETfj78ePWPwGsFTWzszqYugVI3jDupwd7Lq0mwdGD13+SngWgNVc4ypZBer9Kogl6QMdmdBE3IQu19srolpoWkLISgCWWhIliCy+aDr5Pg9Na92gRKqZpkmcaSgOmRiyMDJqJ1JEETNuGelgq6ePGiHDlyROoKmZPhJ1b6n1aayatXdsoTOKVfAwRKLMFtDM3cb39xt1bjAFareJbpoVEC3RgwEW0gCZquJD9UbrEbBsRdvnxZaEVawtv7ky2VK9+tDpzS4GhH8hp+fJMMbavexGht3WMBbnz3QOqu4lmmNbNLwE8J0QaSgAnB0hWpEDR8HzhwQGhju5MM1M7+JAv11OZKBFBp6YjBUXZ17FHK6ty5c+2yfsWsm10CFqqJNoCR+EnQdEIqVJrDzCbq7cadB+0XVpB0Z6BQyouxbMVAKTuU3ZCVYzZpfchQVzBgOrTR/8mAiaiHJGg6kwRNh5OfjkgFMGDKD9mFG3fwutv+67SBfN/2amSf6Mds0kfz9VpXUlTV5rolznQPqVwLAyaibDDADCtTGhK5Kk0C9wU31I8W7rVfyNygebzdRJ6U77jOJS7pRO6qDpu0UrHrSDN5ner1i/jJJsqo08+EoCnqTsfkKUrIRho8vbxja60nj8eAZbdysAYFjd8VsadXdgmYYSLKqKuf6ZxECsMqyQ4yFGnmCZPHGTiFh4ESrTKRJVgCBkxEOSQfrMnOUMtKzmciPWnghNlGv0oCJzZd+8VASRcyTBWAvqWepbgUAyainDpN4INS8dUppAOn7NAj85vGALNNHjBQslGBgAnrT07k+Qc40pWogM5TSXR7RXCRq8nizKCgSfyt5qLM8/SVMwiUfpd8zd+aXWKwZODw4cMSMRzxO5T3H+LjDlEJSaYJpblxicihQ4c4WsATjCN4Y3d/eyAm2bg+f6+dUeJoADuRN3wjWDqStW+pGwMmopKSoOmkRFSeQ7CEoIn8GNjcJ689s7XSC4BdS1eXfPh13IESAhFkbkZHR3OVvHDEHwc68NnGQEnrGUkRT/luZ5aSYKnQTAQGTEQKYguamGXy79Vd29oN4VTOB0mQ9P6te1HOUEJ5fP/+/YWCpI1gufaJEydMTsXi93nhwgWJ0GTyOlE0WAIGTERKkqBpVFZOzzUkcLiQYp+c5fA53Azwwk0Ar8HBwQ37p2ZnZ9u/L/yeKjhFeE3/zc+2yK9+tk0ov1ibufEZOHr0aDvwQLBk1VOIz9LExIRcunRJ7XOO3+/U1FSMfZATeU7DrYcBE5GiJGhqyMqcphEJHJ5Cjxw5IppGRkbar4MHD7Z/LANBEy76eKHMgIt+FbNiDJrymV9+IG9/fjfKQAkBzPHjx8UlfG7SjFOZwGl8fFxOn45umkozeY0lwdJlUcCAichALCU6BCUImoqm7nETwJMyAiT8aP3kmfZpnD17tlJZKJTmUKKj9aW73j78Kq4VJvhMINhAoOQzM4PPDkrxeT/rvgI9BZNSsgS3GgMmIiOdbFMU++dOnTrVvihmFcJNIC3d4YUMFG4EMQdRWKny+rPbOOByDTj59s7ccnR9SmmgEVIJa3Jysv157xU4paVDfM4jm7nUFMWsUjd+MokMdU0FH5PApdmb8+fPtwOP1el7XDRRZsNFtGy5zRJ+7/hzoHcjthLezoE+ebMxwKBJ4s0oAbKtKF+FHGiknxN87tE/iM972muIXiUXGWNluGCd0ehVWg8/lUQOJIHTWPIDynQNIWd6BYEhwqymOk8Fr0Izd8gPFBXUDpSS11nN8ttaGDAROdLJNqERYELICwRPaQkvbSoPUd2CppizSaH0KNXQtKz0KV2yDpRSDJiIHOv0NiHbNCbkVdr3hFNE165dC6oHCkHTyz/bKruf2FzZwCnmQAlZpJMnTzKb5FZTVoKkaYsepV4YMBF50gmcMAFuv1AQ0hJeOjE5hAwUAqcXhjbLvqGtlQmcYj/xhtJbBZbPxqaZBEl7xCMGTEQeJUHTiKycpKMApY2xaQ+Uby8MbpGXd8QbOMUaKCGLhGncWAfCsps3k0nAdEw8YsBE5FkSNN1OfuBVOHBp9inLkWxrsQVOMQdKLLsFY0+RhbmaGDAReRbbHjpamWVTdnKyhtADJwZKpMR7dgkYMBF51jk9NyPMMkWl6ORkC7uf2CT7kuAplAZxBkqkzHt2CRgwEQWAWaY4hRQ0pdAkvvvxzTKcBFE7B1ZersQaKKE3KfSBrDWmsjhXAwMmogB0skxXhIMtoxNi0NQNARSCpu4gShOCpMX7WF8SZ6CEjBJPvAWrmbwOhZBdAgZMRIHoTAM/JxQd9DIhaIphlx3WriBwQgC187Hk58mPvcwvt+RWEhUhMFpIfr76r2PCQZNRwU648xIIBkxEAUmCJowYGBGKEjIWGEFA4WGgFJ0gGr27MWAiCkhnmCVKc7yiRwpjB7ClnsKBQAmlNwZK0WhKQKW4lLtuQCLqqXOBCKLBkYrBjZkBUxjQxD01NSWnT59msBSXI6EFS7BFiCgoyYXiTJJpGk5+Oi4UJQRNwMDJDzRxI0gaHR0Vis54cg0MshmQJTmiAHVOzaGfiXvmIoYBl8eOBdWGUWnsU4peMCME1sKAiShQnX4mBE0NoWjh5BxO0PmeCl51aLhn6S1qZ5Jg6YQEjAETUcAYNFVD6LOaYsWMUmUEdyJuLQyYiALHoKkaGDTp4QqTSgk+s5TiKTmiwHVOixySlaO2FCk0Is/MzMi5c+c4WboAZJDQRH/79u32yTcGS5UwEUuwBMwwEUWCmaZqQUM4ZjYx47QxBJfIJqFHiSoDDX3HkmDpokSEARNRRDqn57A+heelK4KB09oYKFVWUwIcSpkFAyaiCCWBEwb9TAhVBgInrFWZnp6WOmOgVGlnktepJFiK8sgoAyaiSLFEV00ImJBxqlvghJ6ko0ePMlCqpihLcERUMcg2Ja/bLaqUmZmZVhJAtPAtrvIrCZRaU1NTLVrXVPI6nryGk9d48pppxeV0a6WVgIjIv+SC1Ehe51pUOVUNnBgo9TSVvPZH/FmfSl4HpUJYkiOqkNZKme5k8hqTME13Xt3w9Lm/8+KT6DrQFH7x4kW5dOlS1OU6zlDqaVpWjttf3ugXBfxZn5YMv/8YMWAiqqDALqboX0Cz59lezZ6tlSdqPJXiFOCI0LoQNOF1+fLl9vqV0FevMFDqqZm8xvIGGp3P+oisfN4b4gfefJPJ62IVA6UUAyaiCuu6mB4Xt4t8cQHFxvHCT5qtlb6HF2Xl949XmomiNSB4QuCEAAo/DyWAYqDU07QoZWQ6JbDRzqshttLPOBq5z8d68i0PBkxENdEVPB0Vm/JXU34suV2yuIB2BVH4/TMLtQEET90ZKOs5TxgHsH///vZE7uHh4fZfj46Ocsfb2swzMl2fdwRRacm7jDRASoOka3UIkroxYCKqqU75a1hWLqoNWQmgGrLxk+l81yu9eDaT12UfF89VQeCI0LoQNOGFHigET/h5HgiAEPwgKBocHPwhOMKPXPWSWebytIWuz3xDfvy8D8nDD0/Nrh/nOz9eTX6/s1JzDJiIKHrJjWBGOI+KwjUtFW2ErpMtQkQUsSRYGhMGSxSeNJt0PsY1IPQoZpiIKFotTjun8Hgtu5EdZpiIKGZjwmCJwoGy2ymhSmKGiYii1MkuzQhRONAcfUCokjYJEVGcTgpRWPYngfxpoUpiwERE0UluSuMS7voXqrfxzvuTKoYlOSKKCktxFAE0ex9KynP5hl1R0BgwEVFUOHOJItFMXgd4Uq46WJIjomgkwRKOazfE0NjYmPkaEaqFRvK6IFQZDJiIKAqdAZXHxdDk5KScP39eDhw40N7DRlTSCJvAq4MlOSIKXqdv6YroLwx+yJ49ex7KLp08eVImJiaEqKSxpDR3XihqzDARUdCSYAlBEqZ5mwZLCIxWl+JOnTolx44dk/l5tqFQKWc6i28pYswwEVHQkhsN+kBGxRACJWSX1tNoNGRqaqr9I1UHyq5DQ0Oyf7+TWKYpKyfnmkJERKQpCZYmWg4cPXq0hf9cr9f4+HhrZmamRXFLgt/WwYMH29/TJAhu3b59u+XIlBAREWlKbi7jLQeuXLmSKVhKX7jBnjt3rkVxQVB08uTJVpJReuR7OjIy0nKITeBERKSj5SizBAiAJEfAJAycooEg6cKFCz9kk6RH9tAhTgInIqLikhvJUPKabDmCjIMUCJaEgVPQNsombfRCcOXqt9hiEzgRERWR3EAayetKyxH0IknJYElWBU64SbPHyZ+igVL6wj/n8Pt3RYiIiPJIbh5oIplpOYIba9FSnGS46f6//7v/1Lr9r80WuVE2UJJVga/DJvCTQkRE1EtrpQR3puXY8ePHTYIlvAa39rX+/hePtf6f//XjrT/8P/7vDJwMaQZK3a+xsbGWI4jMGkJERLSeluOsUgr9RmIULOH12rPb2sFS94uBky6rQKn7dfr06ZYj3DcXCQ6uJCKnWiuTuyfEeC/cWjCg8tChQ2bLdZPskiTZpXX//z2/fFn+2//u/yV//dLLQvktfjsv//P//7dy4R/+v/IP12/J0oOWWMKw0pGREXEAAy2nhYLGgImInEmCpZHkh3OyssndudW74rS92RiQ3Y/33jiFwOn/NPpm+0W9pYHS//I//Db5+UL7733w9bK8O7csljAF/MqVKy4mvF9NAqYDQkFjwERETiTB0hnxkFVKjY+Py9mzZ8XKvqEt8toz23L9M9uf2d0Onv7P/7f/Ij//r/YJPWytQKnbO3N35cOv74klBEsImhA8GTuRBE1nhILFgImITLVWmlqRVRoRT86cOSMnTpwQSyjFoSRXFIKn//B/eU3+w3/7f5Vn/sMLMvCk+Q06WL0CpR9+3f2W/K65KLeWbEtzY2Njcu7cOTGGDc97kqCJm54DxYCJiMy0Vobzoam1IZ5cvXpVDhywrXa8/LOt7ZcmZJ5+/l+9kPz4q3bPUx0CqH/54D35n/77/4/MfPh+5n9mYfmB/MM/L5n3M508eVImJibE2JkkYLKN7KkwBkxEZCIJlsaSH7A3y9ud3rrJG5BV+ru/GZD+TbaXU5Tsfv78C0kW6nV5Jvn50LPDUgUIkv63/+lP8r9efGvDbNJGZu/cl7dml8TahQsXZHR0VIyxATxQDJiISF0nWDKvYfRi3eQNb+zeJnt/skVcSwOoPS8lGagkGxVDAIVS2xf/23X5t//9oySL9F47k1Q0SFrt/S+X2y9LGzSBo4ym9WAwnQRMh4SCw4CJiFSFEixZN3mDRSmuKPRA7UqCqP86yUC1gylPTeS3P59NAqLr8v03CzL/xWz7hQAJf18rOFrP7z9bkk+/vS+WHDWBswE8QAyYiEhNp2fJ+44sNOmeP39eLPWaueTbwJODncDpBRl6ptH++WNPDbb//vaC2ShkiBAIIfBBpgg/zn18rf33EBQhOPIJTeD/+C+LsrBs28+EYPz06dNiiA3gAWLAREQqOqfhpsRjg/f8/Hy7x+Ty5ctiCf1K6FsqcyqObLhqAncw1JIN4IHpPWGNiCgbr6fh0KuE03DWwRL8asdWBkuBGty6SV7dZV8mPXXqlBgb72RsKRAMmIiotOTCPpH84O3ijtEB1qfhUhhQ+cun3Td5U3YuvkfT09MyOTkpxkzrfpQPH5GIqJROKW5GPMFNC0MpUY6zhqwS1p8wuxQHDLW88d0DsYLG75mZGesG8CNJae6ikHfMMBFRWSfFEwwSPHbsmJNgCRgsxeWN5/pNv19432GKvLHTnYXV5Bk/+URUmK/sEkpvOAnnol8p9equbSzFRWhu8YG81bRtAkeWyXhB70SSZTJvmqKNMcNERGU4zy7hid5Vc3fqpafZtxSrXQP2TeDIchobZ5bJPwZMRFRIJ7s0Jo4gq4Rj3K76lVI7B/rklSS7RPFCE7jlgFE0gONlCMHScSGvGDARUVHOskto7HadVQL0v7zx3IBQ/BAw7X7c7pbnoJeOWSbPGDARUVEjYgw3oCNHjjht7O5m3TRMbll+P5EBNW4AZ5bJM14JiCi35El3RFameptBiQPBko9ACdjkXU2YBP7bTxfFwgbLebXM9/X1bRfyghkmIirioBjCuAAMovQVLLHJu7owCdyqnwnvV/TYGRpKHlaOCnnBgImIihgRIxgX4GDtxLrY5F19CIaxD9DCxYsXrRvAx4S8YMBERJmhFJe8sK5hRAwgs3T+/HnxZd/g5vZwSqq2gc198urP7U7NGWeZRjolcXKMPUxEtKHOxfmwrDzZmp3SQdPsnj17xBeU4ZhZqhfL1SmnT5+W8fFxMTLd19d3SMgpBkxE9AhXQVK30dFRuXTpkvjABu96mr1zX96aXRILDvbMHUqCpmkhZ1iSI6K2tNyWvG7Lygk4PB47CZaQXfIRLKGP5Y3dDJbqaviJzWbfewd75rztcKwrBkxENdYJkiaSF/bBOQ2Sul29elV82PlYn+z9CYOlOsOJOasG8LNnz1qe9BzpTNsnRxgwEdUIJgUnr7FOJumKrARJeFJtiEe+AqYbdx7I7Hf3heoLDeAv74g2y8RBlg6xh4mogjpPnvtlJVv0YufHEfEcGK0HowR8nY7b/cQmeXOYJ+Pq7h/++Xu5tdQSbca9TEhf7enr6/MzsKxmmIum6HWCg/RVB8OdHxudH4c6r8aqv08ZIMu09KBlVpahOKDx36IBHFkm7EI0OjGXrkvxN7isRhgwUTQ6gdGIrAQM6c8bQtEzPEmUycKyyI5+oRpDA/gvntwsn36rX6JFL5PhiAEs5T3LLJM9BkwUpOQCgHIS1m/gxxFhYFRpvgOmue/vJwETL4d19x93bf0h46gJp0Ax/XtkZEQMMMvkCJu+KQjIHnWakc91jrWjIRndkmPCYKny9u/fL0S+Yc/cSz+1CZyN1/2Ypa/oRwyYyIvOaa3RzmktHGnH65w4HJRI4cCTt+8sExFgLtPgVv1+NmSYDHfMcSmvAwyYyIlOgJQORsRRdmSRLsjKk1FDqNYQLB0+fFh8GdrGSyGtwJiB156xWZFjnGUaEzLFqwSZ6QRJxzsBUvdgxBEhWgWrUXzZOcATcrQC61I++dZmNpdxlolLeY2xy5FUIUiSlYDouDAwooww3M/46XtdOB3FkQL1tvigJR98tSyffHPfZBZTN8wbM2r+BgyhnRYywasEqfCxrJXih/k0CJRwisiX157dJvsG+exYV8govf3FXVlYtg2UUg6W8h7o6+vzMzq/4liSo8JWldy87SGjuGCQ38TEhGzfvl2OHTvmNVhCcy+Dpfp678u77WGVroIlcLAuxV8zYMUxw0S5dbJJSP2mqzeIekLvBgKly5cvSwgQLL3ZGDA5EUXh++Tbe/KHz+6KD9brUpIM03YhdcwwUSadbFL3VvsRYbBEPXRnkw4dOhRMsARvPNfPYKmm5pcfyDtzy+KLcZZpiM3fNni1oJ4wUDL54bQwQKIM0t1ZFy9eDCpA6sa+pXr70+dL8tGCzUm4rIyzTONJlumskCpeMWhdXaW3ESHaQAxBEuA03JuNftk5wOR6nd347oH4hs8MPi9jY2NiYCR5MWBSxgwTPaKz5BYZJX+DcSh4sQRJKQZLBDgVh0bvEGAl0JUrV8QA+5gMMGCih6BPSVZmKLH8Ro+ILUhKoVcJPUsMluj6/L32GIFQTE1NWc1l2p4ETfNCahgwUVsnq4RVJdyCSg+JNUhKYTAlVl2wwZvg/S+X269QIFhC0GSA85iUsYeJECxhfhJ6lZhVorbYg6TUq7u2tZepEoUK4zbweTNo/h5OXgyYFPFKUmOdNSYTslKCo5rDAElcvBEoXbt2rX0RjxWySa8/2y+7H2cJjsKHz53BLkU+ACtjwFRTLMHVG4Khq1evtl+4WCOLFHOA1O2lJKP08o6t3A9HawqxNFuVz17VMWCqoSRYwqPMOeETSKUhY5QGRvh592t2dlaqZudAX1KCY1aJNsZeNiqKAVPNJMESxstWrgSHwACBAIKDOkj3r633YxUDovUgk/SrJKPEXiXKAicl8Z5ZeuBuf1wvhot4SRGvMDXR6VdCCW5EItYdGKWZE/xYpwCBfsQTcJTXwOY+2Te0WT78+p6EotFoiAHW+ZQxYKqBTr8Szq02JDJpSQl9NmmvDRGbuqmMl366JZiACcESBlgaYMCkjAFTxcUYLKUBEo60x35ai3ShlIKb3cs/2ypERQ1u3dR+D4Uwj8loaCU0hVQxYKqwWIIllNUQHCFQunTpEgMkekQaKOHF02+kAT1vH3x1z3sv09GjR8UAVqOwT0EZrzwVlQRLyPEiWAqymzDNIOHF/iNaDwMlsuR76jfKcTMzM2JgOgmYDgmpYoapgkINlpBBQoB09uxZZpFoQ2jm/sWTm+XFoc0MlMiM7yyT0UoU4IRvAwyYKia0YKkqKzbIHgKj55/aLPuGtrCZm5zAibmXd2yRd+fcZ5kmJiasTsfBRSF1fHSrkCRYGkt+OC0BBEtpye38+fPMJtGGMBdnb5JNYtmNfPntp9/LwrK7LNOZM2fk+HG7cXhJOY4fJAPMMFVEJ1g6Jx4hMMKFABkl9iXRRphNopBgltdbs0tiDSfiTp8+bTVGIMXskhEGTBXQKcN5DZaQTTpx4sQPk6aJVusOkrDGhNkkCgV65hC43/jugWjCBG8ESQiQDh48aDlCoBsDJiO8YkXO9+gAlN5Qi2d/Eq2FQRLFYvbOffUsEwKlK1euiGN7kopcU0gdr14R66w7waexIY6h/IZACSfeiLoxSKJY/a65qJ5lun37tstdcZNJsHRMyARLcnGbEA/BEspuhw4dYvmNfsCeJKqCvU9tSQKmu6IJ41QcleJgUsgMr2yRSrJL48kPdscs1oGG7gMHDjBYonaQhN6PNxsD8l/2DrQbZxksUcz2DW4WbWhbcATDKtkbYYgZpgh1+pZOi2Pj4+MswVE7SMKNZe9THCpJ1YK5TDv6++TWkt6IAYf9nRNCphgwRaaryXsjGHykVjRHNunIkSPt1DLVD4KiXY9t4uRtqgU8ENxauidacN1Ez6dxH9Mks0v2GDDFB5mlRo9fo/bJRDoZwRKHT9ZH2o+0Y2CT7EpeLLNRnWCQqiZcO437mHBxPiVkjgFTRJLs0kTyw6g4gn6lY8d44KLKhrb2Sf9m9CJtkp39SXCUPF0PbmUGieoLGSZtePA0DJgmOEbADQZMkUiCJQRKJ8URjAw4dYoPLbFDtmhoW1/7qXkguQ88tXVTO0hK/5rlNaKH4YEBL81VKYZ9TCjFsbHUEQZMEXDd5B1zsIRgYEc7GKh2IJAGO8gOPZZUEPDjQPuvVxpXGQwRFYcs0/V5vT4mZJiM+pjYK+EQA6Y4OJvkHVOwhOAIJ7VQSkKQhEwKgwQiKgt9e9eVQxGjPqaGkDMMmAKXZJfOCIOltrQZefhx9toQkZ29T+r3MWHfpkHAZLrFlx7GgClgSbA0Jo6GU4YYLHUfZ0eQpH16hYhoLShra/cxXbt2TQw427lC3CUXLJdLdUMKltKt4emPREQ+vDN3Vz78Wq+PCf1L2CtnoNHX1zcrZI4ZpnDhRFxDjJ05c8Z7sIRM0ovbNydpcO4hI6IwWMxjMmr83p68GDA5wIApQJ3s0pgYwwRvn8ESski/fHpLewYQm7WJKCQWfUxGAdOLyYtrGBxgwBSmXqtPSkOwdOjQIecTvBEYvfTTLe0XgyQiCsHig5Z88s39h3qWdg6snLpdeqDXx4STco1GQ5Sxj8kRBkyB6TR6N8QY+pYQNLn0UpJNennHVgZKRBSE2Tv35f0vl+XGdw/EBaNrbkPICQZMgUgCJTwljIuDU3EIls6fPy+u4LTJm40BjgEgoiAgo/Terbvyl6/vi0tGARNHCzjCgMmzrn4lBErmqVWkhF32Le0b3Cyv/nwbs0pEFIT55QfyVnNJdWRAVgsLC2KAAZMjDJg86QRKOAk3Jo7g6ebIkSPiyqu7trWbuomIQuAzWAI8sBoYQoWir6+Pa1KM8bHfsU7pbUIcDaTsduDAAasP7ENQenvjuX4OmiSioPz20++9BUtgOIvpUBIwTQuZ4h3NoSRYQo/SjHgIltC35CpYQr8SgyUiCgmW6foMlgCnko36mF4UMse7mgMovyUvjAo4LR6OgE5OTjrpW8Ix3L/7GzZ3E1F4PvhqWUJg9ODKPiYHGDAZ62SVriSvEfEATzMnTpwQawiWkFliczcRhQa9S7eW/GaXUkYZJs5icoAduUY6vUrnkteoeDQ2NmY+nJLBEhGF7Ob3buYsZWG0hJcZJgcYMBlIgqURWQmWGuIRSnGXL18WSxwbQEShW9DboVuai15SssGSnLIkWDojK6tNGuKZdd8SepUYLBFR6Jbuh1GOA077jhczTEo6c5UuSCCpUWSXLFefIEhiGY6IKB+rFgnOYrLHDJOCTgkOjd1BBEsIlKyzS6/+fCtPwxERFWD0MDsoZIoBU0mdU3AowQVzSsF6se7LP9sq+waZnCSiOPRvrsXDXUPIFAOmEpJgaUJWZisFA4GS5WJdnIhDwEREFIvQ5uhytECcGDAV1AmWTkpgkF2ysrLyZECIiGKy98nNEhIGTHFiXaWAJFiaTH44KoGZnp42zS5hPxz7logoNgNJSW5Hf18wwyuNMGAyxgxTDjiF0FlxElywBMeOHRMrKMNxPxwRxWr4iXCyTMwwxYkZpoxCGxsAOJ568eLF9iA0/Dg7OysW9g1tYd8SEUUNZbkPvw5ogiVFhwFTBp1gKYhhlIBA6cyZM3L27FnztScowTFYIqLYIcOEuXFLDypdliNDDJh6CClYQhoXTd2WfUqrvfRTzlsiomp4/qnNcn2eWSYqhk0pGwglWEKghCW6e/bscRosIVD65dOMqYmoGnY/zlseFce74TpCCJZ8ZJS6vbyDpTgiqo5Qxgs0Gg0xwLUoxhhur8F3sIS+pPHxcecZpW6o93OaNxFVCcYLhJBlYsAUJ94RV8HoAFk5DdcQD5BVOnLkSPvkm0+vPbNNiIiqBg+DN757IL4MDQ3JyMiIGGgKmWKG6VHILHkZHYCTbwcOHPAeLGGMABu9iaiKfGeYRkdHxciCkClmmLp0Jng7D5bSpu7Lly9LCDhGgIiqyvd4gZMnzTZqNYVMMcPU0dkN53yCNwZOIqsUSrDE7BIRVd3uJ/zc+vBgbNS/dLWvr489TMYYMIm/Rbpo7Ea/kvXwyTwwd4mIqMoe2+znoZDZpbjVviTnI1hCgIS9b8guhQSZJSyoJCKqMh9ZdIyIMcouQVg3k4qq9d0xCZbGkx9Oi0OhnIJby2vPbuMoASKqvPe/XG6/XEGgNDMzI4b2JCW5ppCp2t4dk2BpRDwES4cOHbLaVF3a8OPhbPMmIqoCBEtTU1NiaJrBkhu17GHqDKY8Jw6FHiyx2ZuISBdGCFy5csWyFAeTQk7ULmDqDKZ0OsUb5TechAs1WAIETEREVB4GUyKrdOHChfagSmNhHLGugTreJZFZaogjk5OTcuLEiaBOwq2GzBKXUhIRFZNO7z548GB7dICDICk1yXKcO7UKmDon4szGrK6GYAmn4ULHJbtERMUdP368fQrOg1NCztQmrdA5EedsfEAswRKw2ZuIKDrMLjlWi4ApCZaw7qTIibhCdbTp6elogiU2exMRRYnZJccqHzB1TsRdkGJyF6LR4I05S7FgszcRUXQmmF1yr9IBk+sTcelQypAbvLux2ZuIKDrN5HVeyLmq3y1RhmuIA6HPWVoLm72JiKLD7JInlQ2YOifixsSBGIMlYLM3EVFUmkmwxOySJ5UMmFyeiEP5LcZgic3eRERRQa/HISFvKhcwdZq8GSz1wGZvIqKojLMU51elAqauJm8nY1YxOgCn4mLDZm8ioqhMsBTnX9XumhPiqMkbU10vXrwoMWKzNxFRNBAsceZSACoTMCXZpbHkh+PiwJkzZ+TUqXjfv2z2JiKKwiSDpXBUImBy2beEEhyW6caKzd5ERFFAsBTHyoiaqEqGyclwynQwZczY7E1EFIWmUFCiD5g685YaYszliThkgHb062eB2OxNRERUTNR3zyRYGhFHpTiciHMVLL327Da5tdQSbWz2JiISWVjWv75S9UUbMHX6ls6JA65OxCFYerMxIIv3bD7MbPYmIkoqBncfiKahISeTbMizmDNMyCw1xJirE3H9m1aCJQRNFtklNnsTEa1YvK97jd2/f78YiGOLe41EGTB1RgiMiTGU4FyciFsJlvp/CGjmFnWffoDN3kREKxaWRZVRhqkpFJRYM0zmfUvpQl0XXv+rrbJz4MdvxYJyupjN3kREK5BdWnqgm2FqNBpigBmmwER3F3VxKs7liTg0eO/9ycPZH+2nHzZ7ExGtmFdu+EZ2ySjDdE0oKFEFTK4GVKLJ20Ww9PLPtsq+wYeDJYunn10DbPYmIgLtDL5Rdkn6+vqYYQpMbI0t5sESmrzPnj0r1hAs4bXaTYP+JYuZTkREPiFTtJQ8YC4mD5iDWzfJUMZDLQv3RJVRdim+re41EE3A5KLRG1klFyfiXnp6y5rBEmjPB+nujSIiitnsnfvy/pfLyYPl2pn43U9samftNzrkop1hevHFF8UAs0sBiinDZJ5dQt8S+pcs7Rzok1d2bVv3/9cOmIa2MWAiorilgdKN7zYOdm7ceZC87rZ/bbvlYY3AyaKHyUBTKDhRBEwuGr1d9C3htNobzw1s+Gu0RwoMcpoAEUXsvS/vyj99ma+OhgfPt7+4K9eT+ttrz/Q/VK5bimMGU1MoOMGnH1w0emOKt3Uprnsw5Ua008U7WJIjokgVCZa6IeP0VnPxofIdynmamGGqjxjupqbBkqvhlL/asTXTpG31gWosyRFRhD74erlUsJRCtun3ny21f44MfiQzmJpCwQm6YOOi0RvBknUpDrX0Xz7d+0ttMVIAPVNERDGZX34g79/SO86GTNOHX99LMv2izihgWhAKTugdLqbZpcnJSfOlumg6XO9E3GraIwUGNve1S4FERDF5/9ay+sPjO3N31TceGPUvYQYTxwoEKNh6jXWjt4sRAijBvbor+5Rt7RNyXLZLRDHqdRoulH8vV6LUS5ABk4tGb+tTcQhW0OSdJ8PDkQJEVHfoM9K+Flo5ePCgGGB2KVCh3lHNG73Pnz8vlt54rj93hkf7IsEJ30QUG+1j/5aMSnLMMAUquIDJRaM3BlRaenXXtiAmbLMkR0SxiSW7BCMjI2JgWihIIWaYzBu9LUtxWHuS5UQcERHFyyhYApbkAhVUwNTJLjXEiHWjNzI6L+/I3uRNRERxOnz4sBi5JhSk0DJMUTd6523yJiKiOI2OjoqBq319fexhClQwAZOL7JJlozdmLbFniIio+jBOwGikAMtxAQspw2SaXbJs9N775ObMwymJiChuhuW4aaFgBREwWWeXLBu9V4ZTbhMiIqqHsbExMcL+pYCFkmEyyy5ZN3q/vIOlOCKiukApzmj+UpMrUcLmPWBKskvonGuIEctG7+ef2iL7BjlCgIhIy6LNVhQ1LMfVVwgZpuNixLrR+5Wd7FsiItJ08/v7EjLDcpztJngqzWvAlGSXRpIfRsSIZaM3T8UREemzWryrwbAcN5+U4y4JBc13hsmsd8m60fuln7IUR0SkaX457MW7htO9mV2KgLeAKckuNcQwu2Td6M0BlUREum5+H3YD08mTZs/4DJgi4DPDFGV2ad8QG72JiCx88m24/UvoXTIaVslyXCS8BEyd7NKYGDHNLnFAJRGRiZuBHpEbGhqyzC5NC0XBV4YpyuwSG72JiGws3m/JraUw+5fGx8etskvAclwknN/9O9mlGTGyZ88ek4AJgdLf/+IxsfT2F3fl+vw90fLaM9vaJUQiotB9/M09+eO/3pXQIFCamTG7ZcF2LtyNg48MU5zZpR0sxRERWQl1nMDx42ajAuEig6V4OA2YYu1dYqM3EZGtUPuXjOYupViOi4jrDJNd19z0tGnvEhER2UD/UggZJjR3d0M5znD2EjJLPB0XEWcBUye7NCpGsDPOAhu9iYhshZJdmp9/uDpmeDIOWI6LjMsM00jyGhIDyC5dvnxZtCFQYnaJiMhWiP1LyC4Z7o0Du/k3ZMJlwGTa7G2Bjd5ERPZm74Q1sBLB0tTUlBiaTLJLTaGoOAmYOkt2G2IAfUvnz58XbcguDT++WYiIyNbNxXDmL6GPCcGS4dwlYHYpQq4yTEfFiFXvEk7Gxd67tBT2WiYiIplbfJBcq8IImBAsnTt3zjpYmmB2KU7mAZPlKAGr7BL4GPjYr/zdWLjLiImIwmZxncJk7rzSMtzoqNnZpJTNTYvMucgwmU39qlp2aXCb7rcj0LEmREQ/0F6HgsDn9OnT7encR4/2Lm4gq4R7yZUrV6xnLgF7lyLmIo1iEq5bZpd8nYwbUA5fQx0ER0SU0m74ToMeBE44EHTmzJn2SeqrV68+9OsQKOHXGs5ZWgsHVUbMNGBKynFjYtTsXcXeJe3/LobBERGFTPs6dfDgwYf+GoERymwOSm29NJPsEgdVRsy6JGfS7F3F7BIMKZfkFpYZMBFRuBAsaZfkHJTVipoQippZwNRp9h4RA0ivWvB9Ms7iv82giYhCZdE2EGjAhOwSm70jZ5lhMhtUabVkN4Sp3tpBE0cLEFGobipnl1B+W70PzoEs600mhKJnEjAl2SW8Y00KxlZLdkOZu6Q9WmDu+7Am6BIRpbRHCnjKLvWK0CaZXaoGqwwTgiWTMN9sDUogO+N2PaY7XZwZJiIKlXZJ7sUXX5TANIVTvSvDKmAymb1k1ew9/MTmYKZ6c3glEdWF9koUxyMCsuBU7wpRD5g6zd4meVHM07AQSnYJtIdXLtwTIqLg4ISc9koUD/1LG5lgKa5aLDJMZs3ely7pj7BAdmn3465W6vWmPbxynhkmIgpQxU/IoW+JpbiKsYgURsQAepcsmr1fGNLtGSprxwBnMRFR9d00mL8USIbpahIsHROqHNW7s+Vkb4tmb/Qt7Rt0v2R3I49t1p/2HcomcCKilHZ/JVahBKCZvI4IVZJ2hslssvfly5dF28s7wuldSlk0ny9ysgARBaaCJ+SayesQm7yrSy1gspzsbbU3bvjxsMpxKe2giUt4iSg02ifkPPcvYbMvg6WK08wwmWSXwCK7FMqgyrVo/77Yx0REIbFoFfBYkrsoDJZqQTNgGhMDVs3eCJhCpb2ElxkmIgpJhU7IjSeB0pHklWU9CkVOJWpIynEjElmzd0ijBFbTzjDN3mETExGFw+KEnGMowR1LAqWrQrWhFTWw2VuRRUmOJ+WIKBTaJ+QcjhNAJglZpQMMluqndMDUWbQ7JgYsmr0HNvfJ80+G2eydwjBNbbN3WJYjojBEeEIOgdJE8tqTBEpnhWpJoyQ3KkYsskt7k2Cpf1OYzd4pZJjwe9TMCt1IynJ7Aw8Uiage0PStyXCH3HTywk6uy+xTIo2S3GExcPHiRZNm75D2xm1k54BuUDe3xAwTEYXh1lIUO+SwCw6n3y4xWCIoFTB1ynEmGSaLZm+UukIdJbCadlnu1iJ7mIjIP+3sEhg1fbNHiR5SNsNkEiwhs2SxaDe0vXEb0T7Fh4vU7Hc8LUdEfmn3LyG7ZJRhmhWiLmXvyibluOnpadEW4t64jewc0B978P6Xy0JE5JN2hslqYCVPwdFqhe/KluW4U6dOiTaLk2eWcJpPu3x4484DucleJiLySLt/yShgYrBEjyiTxjAJlq5evWrS7P3ST+No9u5mEeR98g3LckTkj/aqpuHhYTHAJm96RJmAyaQcZzXZe0d/HM3e3XYYlOU+/Poeh1gSkTfzykMrmWEiVwrdkS3LcRbN3qFP9l6PxfoW9A9cn2eWiYj80O5hMjohxwwTPaLoHTmqctzw43EObNyVZJgsxiB8/O09ISLyIZIZTMww0SOKBkzRlOP2DW2JZvbSWvD714bmb44YICLXtPuXwKgkxwwTPSJ3wBRbOc4i4HDpl09vMVnlwhEDROTa/N1oZjBdE6JVimSYoinHIbNk0QfkEsYL7DMYuIksE5u/icgl7QyTVf8SV6HQWopEEybluDNnzoi22GYvrcdqae4HX7GXiYjc0Q6YjLJLTSFaQ66AybIcd/nyZdEWezkuhcDPIlPGEQNE5NKc8lqUF198UQwwu0RryhtRjIgBrEJhOW5jv/zpFrnx3V3R1N4vl5TmrDJYRGRvMXnowUBa7GhLMzi4/mG90u7kYWsooEMvS/d5Qo7ilTdgiuZ0XFXKcannn0Tz97J6RuiDr5cZMBFFaH75gbx/a1k+Wtj4xOsLg1vas+hCCJwi6WFqCtEa8qZgTN6dFuW4GFeh9PLST21GDLAsRxSXT769J//4z0s9gyX4aOGevNVcbP8zvrGHiWKWOWDq9C+pB0xW5bgYV6H0ghEDFtj8TRSPP88tyR8+u5vrQQeBCv6Z6wv+Puva/UtglGGaFaI15MkwmbwzLcpxz1e0xIQRAxblMzR/E1HYUIL7XZIp+svXxYfOvju3LDeX9AOXLLT7l4wGVkJTiNaQJ2AyOY5gcjpue/XKcSmLLFO7+ZuTv4mChKbu97682y7B3fiuXLCDz/o7c7qHR/L8tzVZTfjmDCZaT56774goYzkuP6tm9o/m70e7c4+oihAoffDVsnz41X3VPsN0NZLrz7t2NZAn5Mi1PAGTekkO0721VbUcZ232DjNMRL5hNABGfdxIAppZwwMZn37jPmDSLskNDw+LAWaXaF2ZAqZOw3dDlCHDpK3K5ThLaArFK+ZFxUQxQm/Sh1/dk+vz952dWP342/vyyi5xiifkKHZZM0wjYmB2VvcwQtXLcdY+SS6iVifxiOhROPFWpom7KO3gJQvtxbtGPUxNIVpH1qZv9Ybv+fl59ZIcy3HllG0oJaJs0J/0j//yvZdgKeU6aIql6VuI1pE1YBoRZRb9SyzHlcM+JiI3/vSvd+Xmot+Bsa6nCywsiyqW5Mi1rAFT8A3fmFHEclw5HC9AZO/6/D359N/9f87mvnf7e9DuzzLKMC0I0Tp6BkytVgvBknoor93wjUWTVB6OHBORnfe/VE61FOQyw2RR/mOGiVzL0uHbEAPXrl0TTTuZXVKBDNPLwtIm5Te/6qaIY+SLXVmF9l8bJzUGt/W1H54GNoV5PUB2yUfD9VoW7rqLmL6PZMo3h1bSRrIETAdFGYZVag+s3P0EG741+BpqR8UgIFkdhCwsP3wjXLj78M0Kv767PLLYDmwe/nesDnZW/ztW/jvhLm3e/cQmeflnW4N7H+M4fygWHWaYIlmL0hSiDWQJmKIYWMmSnB4ETQyY1qcRpECRjEzIQUpI8B5+686SvDC4RV7esVWGApkvdmsxnJL3TYe/l0jet00h2kAlAiY0fHPgoh6UDfB0Xkc4KYh5VJi0nAYrawU7FIePFu61v5e/aQx4D5qQyQspcNA+5r8R7T+34eJdonVtGDCx4buecHGrW1kOgRKacTmLqnrwfv7jZ4vyn//6MfEptLEdLoO3xTjWojSFaAO9Ig317BJoN3zvfpwBkzbsmqoLbIJ/a3aJwVKFYeaR79NpdX5/zXMtClVAr0hDveEb5ThM+dY0zIZvddcX6hEwIVj6py+V16hTkD78+p7X0urNgPqXUq6+HpE0ffOEHG3IeYZJ+3Qc7Bxg/5K2OgyxRImEwVJ94D2NBbe+hNj4vOjoy8HFu1QF6wZMrVYL70j1gMmif6k/0Jkrsat6We7tL+4K1YvPLM9ifarcj4gkYGKGiTa0UYbJpH9J+4Tc0Db2L1mpclnu42/CGSBI7vhsvK7rSUuLz9n+/Sa3J65FoQ1tFG2o9y/B5cuXpYj1skhs+LZT5bLcJwENECR3fAXJdQ7O55Unihtll6ApRBvYKNoYEWVlynHrPZ1xpICtqpblQmzAJTd8BC/zd8N8v7n4WmiPFDDKLs1zLQr14rQkZzPhm/1LlkJa5aDp1hLLcXXFYNkt7c8aG77JlzUDppgGVrLh2xaeQBlcUJX4yDDVuSQXydBKZpeop/UyTA0xoD2wkuU4N9AgXTVcpVNfPjJMdQ6YtL/eRjOY9MsfVDnrRRzqDd8YVqk9gwkbycleFRu/+/nWqS0fAZPLvW15uOitWuTQSqqI9W4bwc9fgl0DnPDtAja/V+1I9K7H+N6pKx/ZnqUat00tKG+kMephYoaJeoo2YBrY3Cc7+llWccXnhGQLzDDVFzIerh8AQj0lZ83ia211Sk6IenjktmHV8K19Qo79S259/G21+pj4/qm3Bcd7eEMtyVmbN8jm8ZQc+bLWXaMhBrQbvjmw0q2qleWYYaq3ue/dZkxdB2hZWZcKl+KYwSR9fX2zQtTDWrcN9YZvZJfQ9K1p+An2oLhWpbIce5j0YcTH0NaVV+jjPlz3MYX6sGGd+brJGUxUIVvW+HvqIbz26TjgwEr3bnz3QH75tFBAEJisjv0Gtz78HDS47eHPCs5KrA5ohlaNWejf3CcDXb+mf/NK3+DD/531P4PY2fbW7JKEymXAVOeRAktxnJBrClEGTgImDqysBp+LS7V976inBEHG3idXIprVAcbQGgFHkWAnRKH3iLkcLRByw7d1MDen/HU2GlrZFKIMHgqYYmn4HtrGBhQf0mW8w4/HX85achQw4Wv21FaRX/1sm9QJAkUEdnUtRfn6b4WGGSaqktWRR0MMsOG7OtD8XQUub2L/9OU9+fDr6k1L7yXkMWlOS3IBf+utvw7a/34GTOTT6sgjioZvHgn3pypTv13fxN6Zu1vJiekxc5X9Wgo4w2T94MCAiapkdeTBhm/aUFXGCyx46Cv542d3TebSUDGLjuLXkJu+LQMmiz+3UcC0IEQZmAdMbPiuntkKlOV8BC64Ob3VXKxN0BT6gmNXgUxdp3xr/7mNgiXMYOJaFMrkh4Cp1Wqh2ZsN3xHwfSO6UYHTcr7KJLhJ//Gzxcrt5ouRq0Am5KZvy6AxknIcV6JQZt3Rh8kIVTZ8V8/H38YfMN1c9HcTw3/795+FO6NIS/9mZoIh1CnfKavgXTtg4tJd8q07+miIMvQvseG7enAhjHkYH+ZJ+c7woBcMjeBV9phywKR9w3T1HtZ+r2m3JFj1cml/fV988UUxwAwTZdYdfahPBNMuxwEbvsPwScRZplB+7xg18N6X1Q6aNMUYMFn8N7THNVjtk9MueXItCvnWHTAF37/Ehu8VITTTfvxtvHOFQgr2MKPpesiDekrQXnDcasWX1dQOGgbbe/pElVWP1WIci3ebQpSRacCkXY5jw3c4bi22omxcxqqG0MqJ784ty82l6p2kGlAuyW3fvl00uXgfaAcNuAZqf12tmt+1e7eYYSLfTHuYtAOmHf3MLoWivSYlwvECWCAcmpVxA0uc0dSD9h4xF6fktONgBEsxPDjiPa39QMVTcuSbaYZJe2glG75XhHL6KMY+pg+/CvPIUhVnNGmXjhcWdOcLukjqaWexBreIOotMm/ZyY2SXjDJMuse4qdJMM0zaF7gBHlNue4wBUyHX5+8FfbqPM5o2pn3DdDEfSfu/gYel0AeCwmIcS3cxtJIZJsosqgwTA6awtMtyEe1He//LwAfiyMqMpj9XfNxAURZZBusAWjtj2G76Vr4OWnwNtM8xcAYThaAdMLVarYYY0O5hGtwqFJhPv4kjYAo9u9Tto/n7lRg3oH2aCw9gg4ODosm6LKc9UR4PjTF0JmjvauQMJgpB+tELPrsEHCmwoj+gC2YsU79jyC51w7gBzGmKmUVGWPuknHXj96JBwKT9+bd4kJiPY8p3U4hyMAuY9LNLDJZSIZUmcbG9tRR25iam7FI3BHnsZ/oRrinaJ+Ws+5i0j9a3M0ybtSd9638NljiDiSooDZgaoowzmOrj42/CzoTEll1K4Ub23q04f++g/ZnFNUU702Beknug3cOk/3W1CJi0dzUyw0QhSD95uo0BYlOSozCFnGGyyi7h1M7ExIRYQ1mO85l+pH1aasGwJGcRiFi0JVgEjZHMYGoKUQ7R9DCxJPej0L4Wc9+H28dklV0aGRmRkydPyvj4uFh7+4sliZF2f5BFhmnRMMNkcUKu+0ct2oHdnMEX1Shg0p17Q5VnVpLTxoCJ8rLsXUKwBKdPn24HT5Zu3HkQ1fiGFL7+mmIryVmckLOi+TlZimcGE8cKUC5mARNnMJFvVtmlsbGxhy7iFy5csGpK/UFsfVjzyw/kowX9IE/75jkfUUmu+xoY8gOk9kMKV6JQKKIpyYV0lJ4eFuLeWBfZpRSyHgiarJ6EIbYs0w2DPYMISrW/xpan5LSHN8aSYVqIY6QAs0uUm1nApL0WhafkfhTa06WLFRN5ucoupfD3pqamrC7ubW9/Hs8wS4uvv0VAajluQrs01b1HLuQ+Ju2vKYdWUijMSnK3b98WTSzJUVYus0vdcENHpskK/kwxDLOcvXPf5Ot/+PBhk6DJataVxR65tX6uQfP3ql3m5EgBCsWmVqtl8m6cnZ0VTVyLQlm5zi51QwM4GsGtxDDMUrvZG/B1x9cf9IdXigmrU3KgvYBbs6y+yKGVVFHIMDVEmfbQSuBalB/1M9u2Ll/ZpW4YNWA1owk3ow++CjfLZNXsbXkS0er9YnlKTrunUzPI0Z7LxgwThQIfO85gisxjDJjW5TO71A3BldVN3iKDo+UTo2XM3cFqLCflLE/JhdqiYDUk1oBuCYRqwSRg0s4wsX8pfCHsagshu1T2n8kCf8ZQd+NZ9FiNjo4+dNO0PI2oSTvT0v3gqJ1l1no/WfQvMcNEoUDApNsQIAyYyI9QskspZJiOHj0qFm4uhjfLATsFLQK51V9D7Ruoxe/Z4uTowOaunwd6aDiS/qX5vr4+npKj3FiSixBnUj0qtOxSyqqXKcQM03WjQZXIMHWLIWDSDmjx0GjZx6nV9M3+JaqyKJq+Q32a8oUZt0eFll1K4Z+1KM1ZLo0tAs3en36rHzCt9bWLoSSnnWlZ/dAY6hwm7T+39onIDmaXqJAoMkw8FUYbCTW7lMKpOfWsSGB93+/fsltyvFoMGaaYpnxr0s6sGQXHnPJNhUTR9M2S3MNCnKztU6jZpRRu8MePHxdNc9+HtSblxnf6Ga+Npqprsjglp50B3Nn/8DVQ+yFS62uwGMfiXWaYqJAoSnJci/KwEHe3+eqpCT27lFrdh1NWSO8Bq+/Beg3z2hkmi6+l+tDKVdfAUEeLLCg/u3CPHIUkipIc0XpCzy6ltC/8eJIPofF78UHLbG/cenOsLL6W2paMe5hChK+j9hR6q1NyQlSAScCkvXiXJTlai9XOMtBu1EYAEENmJK/3bt01+R5s9PW3mM2j/We4uWg3tBK0r4kaf/55g/cBT8lRSExqXexhImvIbLz9xV2xoJ1dSmn/O333MeFk3F++tvk99JqSPjg4KJq0d6lpZ1p2DoR/DVyKYwaT9PX1cco3FRJFc1Doy0Zdmw/sSLkPVpkNsJrQbXRE2pu3mktiIUvAun37dtGk+ZmyyLSsNYNJey5T2c+T9ueR2SUKDQIm9XpuLNvESY/Lk3toMrbKbFhll8DoBuDFe1/aBaxZpqPrX2P0/izamZad6wyi6578HQLt4fNGn8OmEBVkEjBR/bgKmFAGsmr0BqvsUpXge/DhVzYB60bN3t1C7ge7uWTbvxQq9UZ35bJrR1OICoqkJCdEbe/827JZZsMyu1QlGFJpVSbPGrBqf5805ya5OiGnvSKJJTmijZlkmLQvZhzUSPDB18vy6b/b1WeZXeoN5dCPFmy+B7hBZp1XpT5aQPGhbE65NrVewBRa5km7t5JDKyk0LMlFyPf8HR8XapSB3p2zK8Uxu9SbdTkUwVLWQCjkklysM5hCezBlwEShMSnJaV/MeCosLGtdWK2DKKsTWSlml3qzLIfmXVIc8noU9dLUOpsOtDcglA2YQhikmkFTiArCJ64pyqp0GoiysQyYLE9kAbNLveF7YF0OzfM9CLnsr/1ejaXpW/vPbfSZ1J2qTLXCJW2kwqpsgL6lf/pSefX7Kq6yS7GuDLL+HmBAIYJWn7Ru9hZlrR394Td9W/y5jQKm20JUUBQluUhSvc4sBlihtAiY2j0zt2yDpYmJCWfZpdnZ+AYMu/geXLhwQfKy+J5pnPzTPtG7UXYppMyT9p/bqkrBKd9UBktyEVoKrDnT4sKNGzX6liynvOftmykD64K0M0zaPSyrufgelAlY9ZfwSmna/ZYu10KVua5o/7mN7iFs+KZScMVtiDLtXXL0sNBOs/Qb3LctG4wBF+SpqSlx5erVq6LNer/YHz9bMv0elA1YQ9wnp/3Z3OhhRDuYKpO51v5zc8o3hYjLdyN0M7CanHamw7rBGFyW4kA7YMKNVHuXWDd8D24u2gbmp0+fljJC3Ce3oFy9jGbKdxwlOT7JUym407F+FhE8yd34LqyASfOijsGI1k3eaDA+fvy4uDQ9PS2a1tsvpsFFoz2+B1mHVK4nxH1y6jOYtogzZYKeSKZ8M2CiUkwCJu1ejVieslyYvRPeJmKtizp6Zt4xHE4JLvuWumk3fO9+3CZgwpTqdyP5HoQ4vFI7cOh3WZK7H84pOe1guKMpRCVEMVaAAdOPQssuQb/C92fxQcu8wRjyzvvRgBK1dknOIsOEgBV9S9a0vgf6Td/l33sxN32X+fPPM8NENcA5TJEJMsOkcFF/59/umo+PGB8f9zLvx6Lh2+KEHAJW6+/ByMiI2vegDuNLNvo+hzTpe4lN31QDJqfkFhY4TNUCLmi3luK6qGeBBmOrha4pXIDLNhkXNTk5KZqQcV1vmGFRf56zD5YQ4Jw7d060hDidva4z47RLcswwUYhMWgpv39YdplqnU3IoTeEU3MLdlgxu65OBTX0/lF9CzC5Bme8P/kzWDcbgcoRAN/TznT9/XjRpl+MQsP7la/v3FoIlzSAnxAyTdsC00WcrpEnfPCVHdYCAiafkPEOQ9MFXy/LJN/fXzCDhorn78c1JIBVewISbd9GACT0zb39xV6y5HiHQTft0HOxUzC65CljxPSh7Km610JZ8W8xH2+izFVJvZySn5JpCVIJJwKR9Imhgs1QWblgIGja64OD/+2jB/qZWxC9/WixJmTZ5u+hb8nEqLnXq1CnRtvsJnQ+Eq4DV6nsQWkluvgJLd3HownK+V1ZcvEshcjjlo7gQPsAWMO/G+gi3JTz97is4U+APN+yDJV8jBFLILlks3NVo9nUVsFp+D0IryanPYMqQucWv0fweIomdt9QXSXYJe+RYkqNSojglV8VGyk++vRd1sAQv79gqRaBnxno8Am7U6FvyudfwzJkzog03yLIN3yvB0qKTYMnye2Dx7y0z1mKhAhmmIrhHjuoCAZP6G0l76NhSeKOHSkEp5E+fxx0sFc0uIVhy0TODE3E+SzbILF26dEm0DSuU4zDCwXrtCWg3ea9Ff9q3FKa9scjHYZcQrrUcKUChMgmYQtzxFJL3by2bD2i0ViS7hKxarA3GRX4PFl7+WbGsXgrjA6xHOAD+/Ji5FJtSJ8W0F+9myP+HMO07kgoAM0xUWhQZJovTJ74gu+TihmWpSHbJVVYNgZLPvqXU5cuXRdvzT20pdYN0NT7AZaO9djYipPUg/R5KckX+DNqZNaMMEwMmKg0BU1OU1WECb1EffhXmabc88paFECy5WHuCC63mYMSiMKjSotn7hcHi5ThXpdD9+/c7HRAaUsA073AGUyqEad/qze6Dg2KAAROVZpJh0r6ILVUow3RzMf7yYt6yEPaTuZgi7bvJO2UxSgA3z71PFguYXAVL+NxfuHBBYhZUSS6Spm/OYKK6iCLDVIEY4wcumm0t7RvKVxZCz4yLP7PvJu+UVXap6InEawtu+sYAwZLr70FID2eLFQiYijR9fx/HHjmi0kwyTCzJrQ0X1NibvREwZeWqZwYNxj6W6q7FIrsEw4/nzy5hKOr/+Ln9YErACAWU41wL6eFM+4RZloAphKbvpTj2yDWFqCQETOrTT7WfEKpySi72chzWoOx+PFvPBIZyushs4CRWCE3eYJVdypvVg7nkvfaHz9wESwhYjx8/Lj5o31zLBD3aD3bau+KsRLJ4tylEJZmU5NTT5BUpycWeKcu6BgU3axdDOUNp8k5ZZZfyZPUATfboG3ORzURWyWfAGto+OU1ZgmTtk3RFskWRLN4lKi2OHqbkQ1zFad8xyTpKIL1ZW0ubvEPpd7DKLq0sXs6eakhPJLr4vITQ5B3KKTlfU74HlLNQRZLg2n92Dq6kUEXRwwRVOF0WsyxNx672k4GLKdJ5WGWX8jR7uwyWQglYQynJaWem6lqOA6MMExfvUmmbrBYSag+vfP/Lu3J9/p76rBPq7aWnt2TKLv3pX+86uVmHMMm7m2V2KeuAUJfBKuB7EELAapHNDoH2fCUrsZTjuHiXNKSfyqYo016LgKPpb39xV/77T79vn74iN3YO9Mkru7b1/HX4nnz679WaIp3F/Py83cm4jANCXS3TTfls8l7N4gZb5Ovoq2VA+5Rc3j8HF+9SnaQBk/obyvKIMU5f/TYJnJhtsoWL8RvPDfT8dVWdIp0FjtNbZJcg64BQV8t0AcFSSAEraGezi6jC4t0QsH+JQpYGTFdFmXW6Hk9CeKqOaa7RjoFIGhMEPRR98mZjoOeF29VC3RCnSCNQOn/+vFjIOkrA1TJdCDFYAu1l30WyRT4W74aAi3epTswCJhebyvFh/b2DE1lahiJ6avzVjq09b9iuFuoiWArpRFzKsncpS3bJ1WBQwGDQEIMl0N49VqTM5GvxrnavU94/OxfvUp2kn7ZZUYZatIt5GjfuPJDZ79zcNMrCUWFkbkKHm/Uvn9642djVQl3wsXKjFwRKlnOXegWrrsqggAb7kOZdrRbCe8PH4t0QaGfWjMqrDJhIRRowTYuBgwcPigvvf2mf5dAyUHzhvBNY8Jolu/H2525OxPlaudELylMW2ifjegyqdDVFHfC1DzlYghBWMXHxbtCaQqSgHTB1jlw2RZmrJz9kmWLpZQr9yfHVDCfiMN7hxnf2c7FCOo3VbXp62lvvkqsp6pD2jYU+eVl9FlOB4MfX4l3teU15xwRw8S7VSffHTb2PyWVmYPZOHIMt+yN5ctyIi4weykAh9sygFHfs2DGx0Kt3KS2DuhBq39ha1Kd9F7iU+Fi8m+fXZZU38OPiXaqT7oCpKcpcNH6nYlmd8ljkAdPsnfvmX+vQdsR1Q9bLbIzAjt7BkotMakzBkoUQriWxTPrWxoCJQtb9sbwmynDBdZXOD2VCby+hXwh7PSlbl+LSm3WIZSCcirMqxW001dvlFO/QdvRlEco+uarIE5TX/WtF9dJ9+54WA67KcrFkmEJv5ux1AUSGyUrIN2tklU6cOCFWNsouuVo5E2OwBHUPmLT7IhdzfMSX4hgrwD1ypOKHgKmvr68pBscvX3zxRXFhKY4Wpuh7mCwnSuNEXKg360OHDrXXoFjYKLvkauUMoAwa4olE12K5loRgMY6JLreFSMHqAlG0jd/aO42shD7Bd6OvI7IcVj006A06evSohMiybwnWyy65nLWEYDWkhcZ5sCTnj/b1gBkmCpl5wOSq8fvmYhyjBWLeEWUVlIa2ULeb5YBKWC+7hCZvV8FSqOMb8ghhFpMv2n2RMf3Zs+iMzSEqbfVHzaTx29VyzOvz4eeHtVcZuGTxew9xoW43lOIsrZddesfRrCUP++GaYlD6116PEhNffZHagVXo876IzDNMgD1ULrwzd7e9DDZkoZ+Sc/l0iQtkaAt1u6FMZVmKG35i87rZpU+/tQ/+PQRLCJSOiEHAFMICXiqHIwUodA/dvpPUpUnA5HIe09tfLKvvddIUy8oDF3CBDPlE1tmzZ8XSa8+sPVX9k2/t+/E8LdM91LnGBJ9hiqmPSfsgSdbSu3aJnhkmCt1a+Q6TPiaX85je/sLNNOSiYu5jqgusPzFt9P7Z1nXfB7cWbQMmT8t0x7oeyNQDpjo3fsc+DDfFDBOFbq2AaVoMuDwBhd1ys9/Fcd41NBuVIrQDPcuApKyrV02SrW0oxW24AsXwxKenZboTSbDUPfGzKYHjaAEiWm2tgOmSGHB9ZPnTbxgwUXGWM5fWK8VZ87RMF8GS3THDDo4W0JM1WGTTN9XNeiU59buFy7IcXF+4H8WYAaoXnIrzUZL1tB9uvWCpKcrqPFZAf9K3nz87S3IUukcCps7MiotiwOWsF3zoP/gq7BNzIeLpoBUWF+99Q1vWnehtDZklx8HSmQ0yS+oPZMxOuKd9rajzaAiKw3qH3C+LAQwodHnR/vBrBkza+jfVo4/JYkK9rynvGI/geOXJZBIsbbR4T33ycq0HVyo3ffv6szPDRKFb7xKODJPJU6DLhlNkmT75lr1MefRKxw9sllqwKCHPfuenk9jVPseOq0mwdKzHrwk+wxRTD5OvQJwrZKhu1vyodcpyZjOZkGly5YOv3UxMrgpeBH90+PBh0VSDcmczeWUZjc6xAgHL2vStfZLQqPrAtSikZqNnE5M+JsDAPFelOY4YoKK0B67iJlzhoKkpK4Mps9ygmhK4mMYK+Gr6/j6OoJIBE6nZKGA6L0aQPseJHVeNmh+y+TuzXjcK7dUuVsf3NViMwqjofJ+mrARLTfGEGSY9Wf/sS8pfI2aYKHTr3v46T4rTYsTlMecb3z3giIGMevcwKa9hCDhgQkCv3Sw9933lsp1NyRksWQVWdW381l6KXbFgkQETqen1STMrywFuRgiarKeAc8QAFTU8PCyafNyEDU8itpfpFgyAgt8nl4f297UuhyuIYtIrYEJZzjRCR4ZpcnJSZmZm2nOarAZccsRAmELOMIF2BjTLjVU7Y2D4NT5UYmG3+m9q+/btoslnhkl7fEcenMVGtLYNr8ydstwZcQA3JsyLQcbJYos6skxs/s5mowtmf41KcqAdMGXpYdLuEzPKMF0sESxB8BmmWEpTvpZ5a399OHyUQpfl0nxWHNeBx8bGTD4873/JEQNlaW9Gt1xyq0E7YMrSwzSonGFaWFCfEwkNKYejBQKWpedT+wADB1dS6HpemV1mmVL44FisUcGIgRCavxeVE10un8y0n2aNbuZqtJu+s5Q7tAcRGgWlZd90TQlcvUcLCBGtkunS3NkJ1RSHrIZbhtD8rR20uSwbaV+YQ88wWQSjvYIm7a+xUdmz0Wq1gqqhMMNERJbyPMv2WnegCjcq7cGBUMXmb5e9G5HczNXgfah9Uu7m4sapC+2mb8NTcg0prinKar1PTjkrycZvokdl/pglWaZpcVyas2j+BjZ/F2dxMw89aNI+fdUrc2HRxGsUNJVZUhf8PrmstIOLIt9/7floWWj/uY1m8oVd86eo5Lr7dTaQO6uhWIwYwM3q02+qFTC5XDxqcTMPPWDSXl6b5UYTSSavTIOX+o2s1hkm7dOrd6sxkj7jqh6iTIqkC46Iw1NzFs3f1xf8BUzaF2HcJFxvaq9bH5OPWUz9cTR+lwmYgs8wxdTD9JiHDBNR3eS+LHem+p4SR9D8bXEhrEpZzkcZom59TNoBU68eJtAeLVCHgIlN33oquvOQqJRCV+UkaEIvk5N+JgQEBw8eFG1VK8u5NBTHzVyNj8zFkHJQeu3aNTEw1Gq1inbENyVw9R4r0Cr1/xNVUeE7n8t+JosRAx9/W52AyXXJiLOYysHXt9doiZ0D0QSlul+cEphhckc7mDRq+G4KkaKyV+VD4iBoQvO3xU3LR1Pn9xW4CLOHqbxegwF3DOjvkzM6KdeQAgou7O3JR+O39md6gP1IREEqdVXunEBwEjQdPnxYtF2fdz+Tael+FEdxN1S3HiZwPovJ4DRiHfqYtGeSZbHEgImoFko/xnYFTRfFEPbLaUPAFMKqlLJcP1VHNFhRjetyD26a2oGp0dc5qIBJGwc4ElFK5c6HoCl5YdzAhBjBDUv7KR8XwxBWpZTl+qRcHWcxaQdMtzKclBt+YrNoMmr85km5GtKe02R0DeMMJlKlmiro7JxDtsnkjWqRZcKqlCpkmVzr3xRF9kON+o04w/1Gu49penpaLLRaraJBEwMmamPARDFQHo9nu0LFYrccLojv3VoWV2K4AGc5ATOgm/yoXcCUaRbTFlFluIam6Cj0phARRUI9YOo4KwZyrErJdVdAlmneUa+CxXFcH0/VFqe4Qubja7zrMeWoVILsYyIiioJJwNRpBJ8WA0ePHs3yy3Lnd9/+YkkoO+1VDHXLMGWZxYReMe3Sp9FJuYYEwsdYAZbtiOrBKsMEJutTRkdHxcKNOw+cnIjJUorxLcsNQLvxe3Z2VkLmYxYT7ByIImAakWKaoszHqiDtrLHFoQptFjsxDbCHiVRZBky4Mqu/YTHA0uqi6GIuk0XA5KNcxFlM5WV5L2hP/A5wRQoRAyaKglnA1CnLqc9mwgfr+PHjYgG9TJYQiNz4Tjdg0r6JZ9Wv/M6JYRaTxbT5XrgiJR8fJTkiqgfLDBNcFgPYLWfxRIKAZvY7ux1zs3f0/93aN/GsBrfVq+kb1G/GGWbZRLQiZUTyU6/D+ijJEVE9WAdMJtO/cVE8efKkWPj0G7uASTu7BBYlyixP1XVr+gYfs5giWpHSEKqNCFoxidSZBkyWp+WQZbLIrlxfuG82yFI7w4Q/P27iPp6qLRpTOYvpURYrUowGWI5IBS0xMFiT9v48o9aCphApss4wgdmOudOnT4s2lOXmDB6f8O+9taR7kekOGH1kmerW+O2jhwm0y3JGJxKLNH5z0jcRRcNFwHRejGCQpcX07/e/1J/8bdG/dPjw4R9+7mNLu3bjt2FDsgrtoBQ34yzZTO2dclYrUiR/43clTjFpP18NuLgqE1Fu5h9Ny7IcWPQyYSaTdvO3Rf9Sd7C4fft20ZQl+6E9ibpu075hIUNsrr0iJbDG76BlyTBpl6f6N+uXu4moPFfPMmZlOQQNFvVv7SyT9vyl1c3e2hmmLNvItTNMdZzFlOXrrJ1hgkAav1mSi5T214WnGykGrgImlOXM7oZjY2OiTTvLdHNR9wJz8ODBh/7aIvvRy8Dmek37Bh99TBVu/OZgwUhpN8MbBUxNIVLkJGDqlOXOiBGLgAk+/EpvkKX2yTuL3q1ubPpem49ZTFDhxm8ioii4bC88K0ZPlMiuWAQQ6DvSCHQsTt2t/vP6yDBx2nd5Cxlj8go3fqvipG8isuIsYOpkmUwW8kL3iTEtWiMGtJtC15q95GWsAKd9lzafMcNUxcbv5JrQFGXshSEiK04PsCYXSJTlmmIAZTmLi6XG5G/tp9S1skk+bhR1nPbtaxZTRI3fXjNM5EbWQD8roww5e+RIlY+JH8fEAAIGiyzTx9+GFzCtFRxVYXAlhB40Wcxiqljjd+UCJqvJ/2SOAROpch4wJVmmaTGayzQxMSHacDMrG/BoB0wvvvjiI3/PW6moZo3fFqtosp44qmjjd1OUaY9+WLzf6//X/XwPcA4TUZB8zZQ16WXCzezo0aOi7ZOSWSbt9PVaN2wfTd9Qx8Zv7ZlXc99ne39F1Pg9IjWifcS+39dVmYg25OWj2ckymaQSLLJMZYdOas9gslg6vFrWrFgdG7999TFF1PjNPiYiqhyfzzKTYsBixECZPXA4ZafdAxFShqmOjd/aX+uaN36rR8g+1gQRUfX5DJguiZHVU7DLKpNyt9ght94NuwqN33XMMGXNYFa08Vv9G+5jETURVZ+3gKlTljN5vNXOMGU9ybSWMtmptSAoWi8w8nGj0L6BLywsSOh8DkfkxG8iIj98txdeFAMImLRvakX7mG4pT/neKBisQinCqESkSjvDhIA8a9m2go3f6hkmXydGiajafAdMputSNBUJHtC/pB10bFRu1M4wZTkurZ3xqGMPEywsZ/t1FWz8Dj5gqiPt7QREVeA1YLJcyrvWrKIyimSYbjnYIddN+0aeJWDSbvo2vIGr0p7142u0AHDidznfBxBcaJfGF5lUI3pECBM/zooB7bJJkV4kjSnh3fDk7GKkQCpLszsu1P2bdC/WdSzLZc1EcuK3e70+B9rZmKFtIVyWiWg175/MTpZJvZfJoiSXdzyAy/4l8JFhgsGtoiqGk3I+S74RNX5nCZqaoszX54CIqi2UR5lpUWaRiZm9kz0Act2/BL5Ob+16TLdMFEOGSfumnKfkG1Hjt25dnIjIo1ACJvVHXIudXzdylOVc9y+Br2ZX7RKRUcZDlc8MEyd+u8UGaCKCUAImm65T5SzTXI4Jltfn74mmLP1LvjJM2gETRwtszKLx2yjLNJLh16jXX9VLcmyAJiIJJGDq6+trisGFU/uk3K3FbDe1+eUH6hO+swzj1A6YsvZucLSAjqyjBSwav61OyrVarV5vyvAnlRIRSTgZJmiKMouJ33MZHjffv5XxzpdDlnUvvppdh5Rv3sDRAj3+28pZpmvXromR2owX8El94j735xE9IqSASf0RVztgAmSZerHYH+dynEAqawUSGQ+OFijP50k5w6+388Zvn6triKi6QgqYLosyXDi1swC9gqGPv7mnfoHFnyNL8GeRYcraV6M9WqCOZbk875ud/foDQz0NsGyKMk76JiILIQVM02JgdHRUNPUaYPmJ8rBKyJMp0+9jyvbrtEcLGJaI1GgHTHmGo+4c0P/oemz8jpr2A9KgQYmbiMoLJmCyavy2OM203gUSzd4fLegHTIcPH878a7X3yWW9GURUIlLjM8OEMugO5SyTUZDayND4rSqU5bvaZWoi8iu0GfzTosyij2m9TMCNO/q9S7gpj42N5fr1mrLeLCxmA4XOoq8sT9AU0cDQjb5QTVEWSkku72YAIgpb5QMmiwGW6w2lfP9L/dNxeQM+7YApa+O39s0bPUyhB00W7608ZTmLrJ7R17z3Ec+IhXBCrV95CTbXwRA9KrSAyaQmkOVIfh5rDbDEoEqL0zTHjx/P9et9zWIarOloAZ9lud2P6398jbJMI0KmHmPARGQutIAJV2v1R1ztstxaowUssku4Gect+3hd2VHDid/aw1FzleSSDFMk4xxGXPcxERFpCypg6uvrQ7CkfsW2bvy2yi6dPHlS8tLOMOXYBlPLxm/t99bNnHs4dg5E0fgNHGBJRFELLcMEwQdMkAZIOBlnkV2CIpkxnyeEtCd+13G0QN7AW3u8gNFoAch+1LMk1w8N2v1DRU/lEZGtEAMmkwGWVpOyrbJLOBlX5Gbsaz0K7GSGqbSNxlasZafBHj+jxu81v1CdcSKqXPfxafcPEVGYQgyYpsWA9nwiaM9dmtefuwR5Zi9187kWQrskhxt3HU/K5SnLae+Ug4sXL4oB9jERUdSCC5g6fUxNiYBVdgk34aITyrUzTJD1z2ixhJcDLDeGRnvtxu/Ll9WTvKlKjxeokiVWBYkeEWKGCZoSOMvsUpFm727a+/PyLOHlSbnyfDd+G/YxjQiZ0P7ccawA0aNCDZiC9/6tZbPsUp7J3mvZvn27aMrThKpdlouh8dv3STntshz6mIxmYI1IBYUwuJKI7DFgKsjqolY2uwTaGaY8T5tDNcww+T4pZzHA0qiPaX+sfUxcc0JEDJgCopFdAp+N3xantkIXwkk57T4mw8zeWqcZmqJM/6FBiKjmGDAFRCO7BOr75HJkmLTLQzglF3rQ5PukHHrHtPuYjDJMwAGWRBQlBkyB0MougfocmhwtNYM8Kacib1kuokC12PHPgGkPrlxiwzVRkBgwBUIruwQ+S3Kwo1/3BhJDWc73SbmI+pgaVZvHpFyFlkUe6ScKEgOmAGhml9J/n6a8qxp2Paab7eBJud6QYYpoHpOzNSlERFoYMAVAM7sE6j1MOZ94d8Sz30yN75IccB4TEZEdBkyeaWeXwGKXVq7p01tEFU/KZbP3Kd0vPPqYjPrHRpOy3Ln0lfy1eolOexaZy9lInLJNFCYGTJ5pZ5cAAZPPU1vaJTmo40m52Tv5zrJb9DEZZZnwhRrreqkHTBa7I9f9b3HKNlEtMGDyyCK71P3v1uR7v1kdy3K3cvYx7TKYx3Tp0iUhtxgwEYWJAZNHFtmllPaprYWcjd+DW0VVHXfKLdyT3HY/ofuRxtcdpTla39A23a85AyaiMIUaMFV+uN3o6KhZdgnUM0w5b948KVfe3Pf5x0tbzGOKIVglIrKm3J5bXqvVwl2nUnNaVkMwc/r0abGkHTDlvXlrn5RLMx3afUKatAMmlEGxwyxPme35JzfLu3OiCvOYRkZGhNxg07easeR+MrLO/4e06YKsrOWZ7+vr41MB9RRcwCRG2aXZ2VkJBUpx2gHNahY37zx2Kg+vTDMdId+4tb/mMLf4QIYfz541SvvH1loWixUqKPes9/+vx3AekxntwBqzyNZrqmfTd7DGsv7CJLDCDwiappMX3vDTSRDFWjQ9JMSS3EFRhhNWoZyympiYMC3FpSwCsqJLeLUakUMvDVmcTry1mP/m+fxTawdY6Y04T7AEMfYxhZyJzCLv94hU4IlnPHldSF63O2MvKrfKh4oLMWAaEWWh3GgRxFg2enfzPVoA2Yz0yVvr4h/Dia2DB3Xj/ZsF9mRol0PBcBlvJehnmYT8G0teF5KgaSZ5HRWqvaACpk7/UkOUhXAkHcHS1NSUuFS1hbB1XMJbJGDaN6g/ByvGslwoimRY2ccUlEbymmTgRKFlmEzejCHcaF30La3me7SA9iDFGE5s+e4dg+7snhZmmDbWv8FbvUiGNe/+RnKiIQycai2YgCl5AzZkpX6szveRdFd9S6v5Hi2gnWGC0AdYhrAiBfY+qT9eIIbhob4MchZTnTTkx8BpRKg2QsowHRcDuMj7bFh12be01n9bU97RAshyaGc6Qi8NWZyUK1KW0w6YoM4BU68S2WObdd/nLnfXUWGN5DWVBE1TnQd+qriQAiaT0wg+L/I++pa6hVAe0s4yxXDTHh4eFk1FAqadBmtSYupj0n5Y6JXx0X4wYMAUlZHkNdM5VdcQqqwgAqbO0c2GGPB5g/XRt9TN92gB0D6xhWxh6It4tWdFzX6X/8gU+ph2Dujv8+OalLVpB0xs+o7SmKxknNjfVFGhZJgOiwFc3H09FfvqW+rme7QAPG9QGgq9AVk7s4dZTEUah/c+pT+Xln1Ma+tXvpKy6TtaDVnpb5oQqpxQAqZKleN89i2t5nu0QDp5WlPoe+UsykFzBcpyz7OPyRk2fdMqJ5Og6QpLdNXiPWDqnDIwGcvrIxPhu29pNe3RAkX6aXY/ofs2q1uGCT79Jn9ZziJYPX/+vNCj2PRdTkVLvbgQsCG8QkLIMOne0TvQ5+Lj4u67b2k17Zv37J38N27txu/Q+5jw/dcuhV5fKDb6ed8QxwtoWHLc9A0hB039ygFi6H2JJTSSFzJNJiNzyK0QAqYRMTA5OSmujY+Pe+9bWs2iJJe3n0Z7gCWEftM+fFi3LQ8lmiLN3ztruiZFvSyaIbGqHTQVyea6op1RC73MXhKenk6zryl+IQRMDVGGp5VTp06JS7hAnz59WkJjUR5aWM71y2VXDY+4a5+Ugxt3wpjHxLLc2rQbv0POMGmffo1h7ZEC9DVhN13cm6FrTP8YTX7qd/QzZ86ISyi/hNS31C0tD2n2CGCA5Y7+fG8dHHG/8d3/0d75/Eh1ZXf8EDCNPZrpxiNjy5bd5USeiSL5Bwt7FYduabLzyKA4q0TqRsluFjTJLhvgD0hoFpOd041krzIWtMarzEiU7aw8kQx4M2DNUA2aEeCM6TYZ0w2Gyv1WvQtFUz/ee3Xufffe9/1IVwUG2t3v1/2+c77nHL0NIPQI0/79++XgwYOiCSJMb8pjhf4N2gsgwnf5G71ohU3L9ROFNl2KDRCfo1ItuDZxjULYY2mnMn3yzOPb5fpmwXb4Q1gPuFJuUnnnSDgltxUUOL1mRNPstm3bWkKiolLB5Epp+44+ILIUkm9pK/jeNN/grpfpPP29HWbTvi1a4AGLzTnUDRbfFwSFprBDhAnp0KLROnjINAUTOHHixH1BhIWUij0n44DjhkIFiCccP3yGfG/1ot68Uk97qQNxqIkV2rGc6zFpSNcMvteIJjY2i4iqI0zqu53vAa0h+pa2sm/fPtVjUuZB/vSEvikWPjUc/63gGuhd9kGMzdhFinIQOO7akbALX9+VV6aK3bYuPGTwMbnwMtneaVgQZcC26Qj9PtMWTEVHEfnEhckdz6iaCCbQkK5omqVoiocQUnKq+CxPDanf0jCqnikH7KiOMg0YB4ENFZv2+vq63Lhxo/OZ5/xDNGF8iU0F2U/taBUiJNpeui/+754RTIX+SSfChA0u1lJ1CF6kN3EsQxZO2r6eqs/XqGim9jVVo7ScBW9vML7q5u6JM5ITTD6BbykGz4WLmXJFU0N2VIemjymPR6YfeJPtF3GDcILI0WoNga+l7R9DW4cyaTlEpT75sqBbPzCKCCft+zKPMJhy1FogbzRHW8Bs3B1uZIcQP7+mlzesoWAC8ybKdM5Emfwab0kpKJhKgtEnsYSPXaSh0Hl6+oliPgYXXhpN8MBGms+m+jSqHufm5u6nljSwXb+LHvsUBJPFCqeVlZWB/sEqXmTwUqAdRUVrgcnH9Csd8zBqnp12VSDSsHiu+qA3shwAaDlw1oimppCgoWAqASqgYkjFWbB5IAW1uroqWmC+2fQThf6JEy+NK1BpiXQfoojjCGNcK5qCCaDrd1HBhOiDdrVc1eD8IFI47jnSZPIxc29sihpFIkbaAqY7nmVwdOtpB60FfLcXCMgfdyozgbeEBEs8O1hOXHRZ3vr1Q+y3NArtN6kyTfVcNFF0CSIZe/fuHatNhQtv1IWb5czA2h3XQwDn6MUXX/QWmRiFdvVYkdYCu5SbSY4aALwnsvu5HzZaiWuoimbHPeAhwR5NgVPpFe9KTWt3WbZg4zt16lSUlRza33MZwWR7AsUE/EeHDx/urDJeJBeVeYg6lPGqFK2uiwn4mrDxVT2TrMrWAlM7/d5bLjxbVRGIcMKDIp7URQ0JYfdqiTIuwqt2qK6nnLf6U9/Fpl2G178f56aNKBOiTWWMqS4E/MWb5YbxxiZYi4CNruw50kJbMMHkD+9ZnrWm3Ohy1D2OF6DJhEQT6BVOFTXHXeDcuXAJ4empnrRGdZLmaAqIDY9iqWWWesWE9qgO+BvKiCZ4b7THpPiibIrOhYC/cLNcdVKKable7DnSFk15xYh2mgr3WV7BVIU/LYW0XD9w/czOznY8iBUIcJjAZ4QER5IRJqCVOsNm59FUisjSrFnqkyhdeLvw9lsUvJW+EWmUCdgUXZH0j+36rYnt+l2U159Mv84D50V7LE1eUkpTVdVKISRQiQnhVMHA6SX6mcIjBMHkZI6Jne82jtBBJGFpaclnifJC5utyUiqiLfpKp+US2LSLpn/Q9VsbdP0uSow+spiwrQXqQmyFHGXAPX7gwAHfhQUNs04JCYoQrvamOML6jtALpwhWbB06dEg8smjEUmcMfCaa1H1MmNGlyfXNcoIplU3bhu3ziCbtCBMom4LBXD/ijsli85GDJc8L0Q++m3aKt5cKCgtmTJRpv5BgqHzXyuboNMUREE2IBiBSlCfCghTcZ5995mSDG0LLHIfDW/+bKKPtwRpn1tWbT6Wxq1jRNOohart+a3KxZHuBVybrs8lVQSo+sW4fpuHg5WfPRH0iahUUFhxnai4cQnnNd54ghhC6dOnS/ciRNYZj4c/QWwnzyPIKK2Vm+/w39bSci5Rc2a7G2FRSSV3YkP0otKvlsKGtfsO0nA82CwTzUklT5RFMIPVCgq3YlyRPTTYbZnlNdZDBBLFjZQr6htQT+JYeaQVtjgluEtVqOdvkT5O/a0wU7jptsdU9qTBqnAqMo3mEVRHeeHKH/OiZnVIUGPbfX1VsSV0D/uUv8rW2x+ia//jthsQOWgb85KXHR/69ul5L1rrhoXoa4esXs2wMqZAgXoWyC8F7GUIALPcTSxlRVMqhWqssqVVsoUhgmDHURVru6ma544+oAKNMbkilcixvUUcdjN/9QBoeL0AePE14aDDKFAAhXem6A7fCp2XWsSF/7iTeq/02VCYlZEFq6JWptML5MIaePHmy75+56Ppdtr0A+PFzO5NrPBgCdfP11DnFmzcdrwDN3wEQzFWeTWpuSn2YHzYaJou6tUQZ9Uq5jfZY09lh/k6tDBupuUFvnS66fpdpLwAmH/sT+XuTUqVo0kd7plzo1LnyEh3B0ZvNMa+xmWX1hPZa4PyqC4SjRhDl6T+lHmXSjnDAGHp1o3xaDpv2O88X9+CEDMTSoG7g6ByszTgdnq1o0o70IS2FkvM3vt/1WP342UcXxDL+TiwpnSIvBi/XrBIRlZd1Ft643wdFlhVxMySV5Ca4K9yoaLhmFyRdThuxlCuG6+JYuDB+lzUe9wLR9cGVzdLNMEMD6TdUZfbzLMFLtrq6KlogJfJPPxxtzh3F+p17HRP+NRM13DpcGVFAGzSByJrY3v3/dn+/zfx+W0ckQfyU2TghRi7cvCufXL8T7DUAA3SRn+1ff31rrOhrCOQ1uoO6FxJ4MIGj/Yzuw5sUIkTBhB3mM+mWU6ZGy6y9easdzLGYNx9Looz2hv3Cd0yUYnqXjIvdsM+vlfdFWazxFps7gCDzvXnh4dmvnxdSdidO6Fr2xqlWHASEy67t4jVlimvgvVaYwrmoYIq9ChTi9x/+tNh9/elXd+SXV9OpfC0Knq3o4+dwOkTD7B96D29SiOASzxATRihgENQZSYuWWbMFS0OdGL+xiWuGj63xeNyNFeLmrWcnTKrmnqyaNNPFr+/KptFOG+Zr7zJfe3Lng4gG6BVFNuIxbIPH93jtVlvOr+uIslGgT0s/wYS0nLZgwjnQFkxVpFhwLiFMfnH1tvzqq3IDhkMBVaCf/uHbaKNMEK3XNu/J0xP5U6ZvPPlY57qBaEolWlwEawLHy5IjZsxynvsj/QnSPJAZwI9KOkD4zA4zeffD/H38O/WaVRddzMfxMW0Fm+YrkzvknecnOpETvOXi861nd3YWvC9YL0/t6CxEuGwqaJhow5/h70KU/egZ92bzQd2AEbJXH4T8jXsB6JO/Ninet57bGXVBQOyDpuFP/NnlTVkrKHx++N0d931xdZqrZ4EJfJCHUQHnTZ/IYIK+mk2kadl8FBsEFx5Nsw6UbTpmjgFeVWZEEZiSd+/eLZpo+Jh84zr9gw7y6BzfD3QKxoNVk3/+88eT26DOr30rH/7+toRA0ZQcgOh497cbUUdb8DP/45/tKn1tIfqJfmGbd6s7BrjXV8334es8DPMwjslZs5fsFVIJQb/+mAtj3giGaVEWDB5BNdwxGQ9EmWZEEdzE09PTqj6m1W/0Iky+QCQL0Sv4TFykf4aNTkB7AW3BhA0htWGor0whrXWn9KBnTbDZFhVMiDIh2hKqLysP+L7/88pmaZ8iorpYVQPRhBSpj1QvXkoxdw5+RWXQXmCKXb+rIYZ6XlSUxdYFHBfzvIJYAiviAO3y9msVmKo1wIaG9A9SdNoM6wDspL3AH9NKy1li72mUQr8rRIku3ozbU4bzgHv9Jy/tkpc8vFisrDh5dIN9QioheMEEJZ2V4TtLCivTkq5fScuYF42PafWP8UWZLDCrwhelybCJ5i7G1KAsn4SJNbO/FXF39V9cvRN9mwSAc/G3z0+o3+9bcTicd0ZIJUTjSDQC5LAJRUI4HJVwacoYfqV+ZFWD6mk5F4IJJcUxp4TwAPVZBj43N6daLVemqon4BcUMWIjIIo2t4evpeIQ8RHhxfX18/U4nSpMCnSkD5nH1yXU3lYyIMEM0OejLRON3RURVwoEUlxEP6JANJ21DwmIRok7c0BQHPibcyJpvQXhwoxw8lQeqa1w0uPv0f7/tzIhLhbWOWTeMyNmGomkZVZ1qHc6f6n7g/kPLjAtfuxNP8P/84Hvb1VtYVAUiy3jBcNVwEz5FCqZ0iO5VNGs5MGvWsoRBy6wZh2IJ5BmjUph9+/RT4Xignl+P2+vgCxc+ps/NsU+pxQAM36GYpTfuhp2Osi0zXLcyiLkZZz+mv7PdWXru3Llz4oCprBiKeCbK2D36GZmF5pZoE+8sUTwCmx7cm3MuXGkykajuY3KxYQM0rUNqiAwHUT4XqdFfmijfWqQVWWhSiogSIpXvtTbkf76iL6soaJjpsr0EIlmp9f3q9HVzMP/v9Gln9UqMMlVA1GaHTDihJwXEU0v8sSxdoXTMY3ln8IN4LWUb3tURF1E+zIJ734iNGI6/FUgff9kVSP/261ud9AgilZcDa1URyzsAKj/f3MMoU1FgJdA25MPHNKz4YwyczV4hg0nCHWpEy3I2lHBG3KXqbERpN6JbRbt2K6D+quIqwgGQRvngyoaQ4bg8/v/+xS35+e9ud8rBQxNP8CYhivTTixsdgfTfX4YnkLYSekquF3hzXnjC3ePdjkNKCQhNTBLQRrvfWgYFUwXE27e/D1lq7COT30X/oxmz3s4+y15cLekKldOu0245cJIMf/XVV13d0J1Ix8+ubHY6gE9F3IPGJRBMEK7DejaNAzxNn693f/30rm2yZ2K7THcaCW5XPyeIFm2MyNSgKuyCEXC/+sPd5Dbc0MBoIZddxtEE0nVpvm/gZ0I6U/PadHRvUzBVQFKCyZJFf5azhfEiyD3BJIfPhvSvsFvLFlJf+PcfhdRNFT6mrK2C6o3iYhBsLxdv3jXCaUPeeWEi+HL3/7rqplJmFOj6rTkMeRAQsNc2HggogBREZ2CxebtGf5pe0Bn5od/ffngTgTiqk+iJrVO36y7jSJumJpgAzPNfKPY0c/UyRPyTpGDaSjbEFstZ61VPNM1SdWq7jnAAPKzf/c2G/OVTO+Svngqv5B3poQ9N6qqqlBBmzvkQTP3AuVnv2FGwodKonxoQwX9jIk3vG9GkLW6RosTImj0TaUWPn9mlK5hIOrDDXVw0xQGHDh0SH8Cn8t5qWGZkGI7f/c1mpf4ZiFZXXiZCIABcmcCv3qKwIPWBgikunPioMCASozp8ALMoKrguVvQGB58NBBuM0EjBwXDsKq1UZPTJkSNHhIRNrMNzgSsTeMzHhJCi1CIllwpILbrwMWFjP3PmjOzdu9dLvh0PWZjBYUJ+HQ9yRQMyIkbw6sB/s3Gv68OB0Rh+G98P9yJtG2yUyZUBn4xPTFVy/UAH+J9+oVu5mqJgWrvN1DTpDwVTfKBqb16UQYTp1KlTMjs7K76AsPnw97c7v355ckeneqss8CGFVnkFM3cREGWiYAqX2AUT/EyY9agZ3b2YmNcHz5HP15lmJP2hYIoPdyOwTYTj6NGjneWb3vL3mOk10BftpI7jj4G8VRnAyXBSaF6PbtaaIgciEl2/U5ktB8sAIYOghyk+nO6miHJg0yblsGIJlW9lfGFViFWSD4iD2NsooNWANh9ciXcUz1bOr+nPwXQ0UYG9CiqAgikyst5QTXHI4uKis7EpdaGsiRsiCyZ8Mj44lkWM93nYiDxbc21TX9hASMYyimcY8D+6qJalYEoHCqY4WRSHYJOBn8lX5VxqIEo0zrE7fvw4BeuY4PijkGFyclI0iT0tB1HgApi/YxZNOC7WT6kJ7mNHz9GWEO/QwxQhJsq04qJarhfc5EtLS15N4CmA46aR0sRmf+DAAZrASwAvGAQ/hP/u3btldXVVtEDfoT0TcT42YWi+vuFO8VnR9NZz4TWn7Qc6118zxwPLVR82hz3uEnB8xgcHfEWKEUzI+RwVxyA9d/jwYSH5gMiEf0mLY8eO0ddUAKQzEaGzwHi/sqLX4P/1J3d0ptrHyHtGzIQ+4Dg1Ll265CLCtGZemncL8Q5TcvGCAXDO89jYgOipyQcejJpiCcALxfRoPiDue8US0D5umJ/289/d7lSGxcTHX96mWPIMxLqj+9ZZpTQhyWKiTPNtT5g0E8wJXAOWeTC2zdtk2xX42vh/xHRMfB57k8Lse9yMgIrqZ+FKZ5loc9sRD78VEELyYW6eM21PmNRQVA8sX8u1WOrFRPuiOjYu18zMTEcQ3bhxY+DxMtG5qH4mrjTW1NRU2yH7hBBSHHPzNMy60fYENiBGOh4sbNrDNmwX4M0VD+SYjpPGwnV36NChzjWY95hDyMb0M3KlsUxqvu2IS0IIKY+5iRbaHsEm9Nprr0Xz8HK1FhcX21WBc5B6mtQKJAjEcURpHcUlV7VrUIpYgSUhhIyHuZGOtz1T1xTdMM+MbyAkEHGBsEC0K6bjOOz4avo/UjkuXHEsXG8O2SeEkPFpe/QzWSAc6pSiqyIFVwR8bzgnR44ciU4o4PuFCNc+vjgeMR0HrriXQz/jJSGVwj5MCWFuqIb5OGNWQzzSarXk4MGDyTdZRNm6w0Z0zsB5OXv2bKcf0eXLl9fu3bs3hXOmDRpF5h1Fgg7I09PTnbJr/BpLe4xJL2jAyiagxDXomVZ2LFKeL79t27ZjQiqDgikxjGjCTA2IJne7zwBSbbKITR29kFIbV4JBwRBO9nMrWwXQ1p4yRQRS1UAssWs9cQnuDzSqdMiLRjC1hBCiR9tjf6ZHYsYmHJ2SZ2T//v1Bp+BIfuhl4nK5HLcWOSOEEDeYG+xIu0JsFVeM/iZUVaEsOBRjN9GBXiYuVwveO8fMCakcpuQSpt19K5mRijl9+rScPHmy8xkCNpWEEDqW9dLgvzmcLk4CgLP5iDYY9oxh2Y5hOo4QlxjBhHazl9qBgKgTysV9R52QikF0wVc3bhI2HPPDpbU8dflfEhIEjDAlTrtbOfeZVGACHwaqtmDEheF4dXVVtLFRI7z9MWJEesE1BwM4rkFCyoLnCiJLHp4vMya69JGQyqFgqgFGNM1It3KOECLdVhgQTS7aK6SETV/zOD0Ax2NhYaHTYsRDlWjTiCWWdwYCBVNNMKJpwXxwyjUhGRRNw4EYQAQFnzxOXa/S22+/LfPz8z7baTC6FBAUTDXCiKYj5uOoEEI6UDT1Z2u6qa7HCcJobm5O9u/f3xFMnlk2YumgEEKqoe15UC8hMYCy8DqN+Bm2ho3/qcNxQlsRWyhSYQ+2S+2u/5QEBCNMNaTd7QZ+SjyPUCEkdJaXlzstMOo6RgXenOPHR2fu0SIExwgFGzDRxwoiaJOTk/dH8wTUVmTeRJdOCgkKCqaakr29QDSlNe8jHuApW5EKZv+R0SD1ZPuH1aGaDiIBQgmpJ1I5TMUFCgVTzWnT1+SblnTfHjtGTnP84R7FOVgQEiRWPGF4McRTzBGVXmzbDRiZKZSCoWXWLJtUhgkFE8Gmjacl4vANIS5pmnXAPAwf2XHNOZiXrnBqCCGkrjAVFzAUTKRDlqJbkgBGqSTKgnkQnhj2F7JzMCeM+BFSR5iKCxwKJvIQTNGp05KeFFweMuGE8zAvhJA60BKm4oKHgok8QrvbGRzRpoaQccC04YP9UnB5yITTjFmHhOZ8QlIGqfowppOTgVAwkb4wRTc2I1NwRegRT29nn0HNBvQIStYaUt+fn6THUfOsOCYkeCiYyFCyFB0quLhB5aMl3bdFp7XoWS+tfdIVT/h1Q9IFEbpls04jtZkZ5JeEkPhZNNf0YSFRQMFERkJPTW4WzTpWNgU3DpmA6hVRDYmXlnQjSU189vN/0WtHEoAm78igYCK5yYQT2g+wacvDNKXrVWpJIGTn6lV5EH3CmspWQ9zRyvn31rLVyj4hkM7h93kFp/kZcS2yfxWJEYqlCKFgIoXpiTjNSL2N4U3p+g+imyaeNcxsmDUpD4RUP1o9v14360bvH5qffVUqxPwcy9JtxUBILNCzFCkUTGQsMj8JNqwZqQfNbJ2oIvVGHiYTfhgvwypCEjp4XiywMWW8UDARFXqaLs5LOlEnmzJqSjdltEKRFB6ZaIIJnKliEipNCSxtT4pDwUTUMRsYjMfz0t3AQq6us96ZljwQR1hIM92oOt1EikEjOAkQPFeOarYYIdVBwUScYjYx9A2CcLJVXFVjq69Ox+g9IsMx1xtM4BBObINBqgRCCVWzTN0nBAUT8UaWOkHlljUc202tIfq0sk9bjXXOdW8kEgZZehi+poYQ4hc8Y04LhVKSUDARQpIkK0hAtKkhhLjjocaqQpKFgokQkiyJFiOQMGhKN5p0ktGkekDBRAipBTVsgUH0aWZrmUUh9YOCiRBSK9h4leSkJQ+qaNlWhFAwEULqS08LjBmheBpEU7oVX4ioTEu32tXHmB0frMmjY3oKjegh9YGCiRBChOJpC01h6omQh6BgIoSQLRjxhCgKoikz8iCi0pD0+ju15OEGrvj8iNEVQh7l/wHHZWF55j5iegAAAABJRU5ErkJggg==;" vertex="1" parent="0ZA1Bk6u35t-kXVyPO7H-8">
          <mxGeometry x="33.170000000000016" width="293.67" height="484.46" as="geometry" />
        </mxCell>
        <mxCell id="0ZA1Bk6u35t-kXVyPO7H-7" value="&lt;h1 style=&quot;box-sizing: border-box; border: 0px solid rgb(229, 231, 235); --tw-border-spacing-x: 0; --tw-border-spacing-y: 0; --tw-translate-x: 0; --tw-translate-y: 0; --tw-rotate: 0; --tw-skew-x: 0; --tw-skew-y: 0; --tw-scale-x: 1; --tw-scale-y: 1; --tw-pan-x: ; --tw-pan-y: ; --tw-pinch-zoom: ; --tw-scroll-snap-strictness: proximity; --tw-gradient-from-position: ; --tw-gradient-via-position: ; --tw-gradient-to-position: ; --tw-ordinal: ; --tw-slashed-zero: ; --tw-numeric-figure: ; --tw-numeric-spacing: ; --tw-numeric-fraction: ; --tw-ring-inset: ; --tw-ring-offset-width: 0px; --tw-ring-offset-color: #fff; --tw-ring-color: #3b82f680; --tw-ring-offset-shadow: 0 0 #0000; --tw-ring-shadow: 0 0 #0000; --tw-shadow: 0 0 #0000; --tw-shadow-colored: 0 0 #0000; --tw-blur: ; --tw-brightness: ; --tw-contrast: ; --tw-grayscale: ; --tw-hue-rotate: ; --tw-invert: ; --tw-saturate: ; --tw-sepia: ; --tw-drop-shadow: ; --tw-backdrop-blur: ; --tw-backdrop-brightness: ; --tw-backdrop-contrast: ; --tw-backdrop-grayscale: ; --tw-backdrop-hue-rotate: ; --tw-backdrop-invert: ; --tw-backdrop-opacity: ; --tw-backdrop-saturate: ; --tw-backdrop-sepia: ; --tw-contain-size: ; --tw-contain-layout: ; --tw-contain-paint: ; --tw-contain-style: ; font-size: 90px; font-weight: 700; margin: 0.5rem 0px 0px; font-optical-sizing: auto; font-style: normal; border-radius: 0.25rem; --tw-bg-opacity: 1; padding: 0.25rem; line-height: 2.25rem; --tw-text-opacity: 1; color: rgb(0, 0, 0); font-variant-ligatures: normal; font-variant-caps: normal; letter-spacing: normal; orphans: 2; text-align: start; text-indent: 0px; text-transform: none; widows: 2; word-spacing: 0px; -webkit-text-stroke-width: 0px; white-space: normal; text-decoration-thickness: initial; text-decoration-style: initial; text-decoration-color: initial;&quot;&gt;&lt;font data-font-src=&quot;https://fonts.googleapis.com/css2?family=Fjalla+One&amp;amp;family=Inter:wght@100..900&amp;amp;display=swap&amp;quot; rel=&amp;quot;stylesheet&quot; face=&quot;Fjalla One&quot; style=&quot;font-size: 90px;&quot;&gt;guara&lt;span class=&quot;font-brand-highlight&quot; data-v-1ada0122=&quot;&quot; style=&quot;box-sizing: border-box; border: 0px solid rgb(229, 231, 235); --tw-border-spacing-x: 0; --tw-border-spacing-y: 0; --tw-translate-x: 0; --tw-translate-y: 0; --tw-rotate: 0; --tw-skew-x: 0; --tw-skew-y: 0; --tw-scale-x: 1; --tw-scale-y: 1; --tw-pan-x: ; --tw-pan-y: ; --tw-pinch-zoom: ; --tw-scroll-snap-strictness: proximity; --tw-gradient-from-position: ; --tw-gradient-via-position: ; --tw-gradient-to-position: ; --tw-ordinal: ; --tw-slashed-zero: ; --tw-numeric-figure: ; --tw-numeric-spacing: ; --tw-numeric-fraction: ; --tw-ring-inset: ; --tw-ring-offset-width: 0px; --tw-ring-offset-color: #fff; --tw-ring-color: #3b82f680; --tw-ring-offset-shadow: 0 0 #0000; --tw-ring-shadow: 0 0 #0000; --tw-shadow: 0 0 #0000; --tw-shadow-colored: 0 0 #0000; --tw-blur: ; --tw-brightness: ; --tw-contrast: ; --tw-grayscale: ; --tw-hue-rotate: ; --tw-invert: ; --tw-saturate: ; --tw-sepia: ; --tw-drop-shadow: ; --tw-backdrop-blur: ; --tw-backdrop-brightness: ; --tw-backdrop-contrast: ; --tw-backdrop-grayscale: ; --tw-backdrop-hue-rotate: ; --tw-backdrop-invert: ; --tw-backdrop-opacity: ; --tw-backdrop-saturate: ; --tw-backdrop-sepia: ; --tw-contain-size: ; --tw-contain-layout: ; --tw-contain-paint: ; --tw-contain-style: ; color: rgb(122, 42, 10);&quot;&gt;data&lt;/span&gt;&lt;/font&gt;&lt;/h1&gt;" style="text;whiteSpace=wrap;html=1;fontFamily=Helvetica;fontSize=72;fontColor=default;labelBackgroundColor=none;fillColor=none;" vertex="1" parent="0ZA1Bk6u35t-kXVyPO7H-8">
          <mxGeometry y="500.00000000000006" width="360" height="80" as="geometry" />
        </mxCell>
        <mxCell id="rkD8X_6MJbDiaaGYWwtp-8" style="edgeStyle=orthogonalEdgeStyle;rounded=0;orthogonalLoop=1;jettySize=auto;html=1;entryX=0.5;entryY=1;entryDx=0;entryDy=0;strokeColor=#6c8ebf;strokeWidth=8;align=center;verticalAlign=middle;fontFamily=Helvetica;fontSize=11;fontColor=default;labelBackgroundColor=default;endArrow=classic;fillColor=#dae8fc;" edge="1" parent="1" source="J7N65TzNwNF9CHvT1Ihc-1" target="kDbNw65WWVTOaRm87vZu-1">
          <mxGeometry relative="1" as="geometry" />
        </mxCell>
        <mxCell id="rkD8X_6MJbDiaaGYWwtp-10" style="edgeStyle=orthogonalEdgeStyle;rounded=0;orthogonalLoop=1;jettySize=auto;html=1;strokeColor=#6c8ebf;strokeWidth=8;align=center;verticalAlign=middle;fontFamily=Helvetica;fontSize=11;fontColor=default;labelBackgroundColor=default;endArrow=classic;fillColor=#dae8fc;" edge="1" parent="1" source="J7N65TzNwNF9CHvT1Ihc-1" target="YOWSx_JvRBE_c-AcAG9M-1">
          <mxGeometry relative="1" as="geometry" />
        </mxCell>
        <mxCell id="J7N65TzNwNF9CHvT1Ihc-1" value="&lt;span style=&quot;color: rgba(0, 0, 0, 0); font-family: monospace; font-size: 0px; text-align: start; text-wrap: nowrap;&quot;&gt;%3CmxGraphModel%3E%3Croot%3E%3CmxCell%20id%3D%220%22%2F%3E%3CmxCell%20id%3D%221%22%20parent%3D%220%22%2F%3E%3CmxCell%20id%3D%222%22%20value%3D%22%22%20style%3D%22group%22%20vertex%3D%221%22%20connectable%3D%220%22%20parent%3D%221%22%3E%3CmxGeometry%20x%3D%221350%22%20y%3D%22-290%22%20width%3D%22400%22%20height%3D%22340%22%20as%3D%22geometry%22%2F%3E%3C%2FmxCell%3E%3CmxCell%20id%3D%223%22%20style%3D%22edgeStyle%3DorthogonalEdgeStyle%3Brounded%3D0%3BorthogonalLoop%3D1%3BjettySize%3Dauto%3Bhtml%3D1%3B%22%20edge%3D%221%22%20parent%3D%222%22%20source%3D%224%22%3E%3CmxGeometry%20relative%3D%221%22%20as%3D%22geometry%22%3E%3CmxPoint%20x%3D%22640%22%20y%3D%22610%22%20as%3D%22targetPoint%22%2F%3E%3C%2FmxGeometry%3E%3C%2FmxCell%3E%3CmxCell%20id%3D%224%22%20value%3D%22%22%20style%3D%22rounded%3D0%3BwhiteSpace%3Dwrap%3Bhtml%3D1%3Bdashed%3D1%3BstrokeWidth%3D5%3BstrokeColor%3D%239999FF%3B%22%20vertex%3D%221%22%20parent%3D%222%22%3E%3CmxGeometry%20width%3D%22400%22%20height%3D%22340%22%20as%3D%22geometry%22%2F%3E%3C%2FmxCell%3E%3CmxCell%20id%3D%225%22%20value%3D%22%22%20style%3D%22shape%3Dimage%3BverticalLabelPosition%3Dbottom%3BlabelBackgroundColor%3Ddefault%3BverticalAlign%3Dtop%3Baspect%3Dfixed%3BimageAspect%3D0%3Bimage%3Dhttps%3A%2F%2Fseeklogo.com%2Fimages%2FA%2Fairbyte-logo-CC005A0105-seeklogo.com.png%3B%22%20vertex%3D%221%22%20parent%3D%222%22%3E%3CmxGeometry%20x%3D%22113%22%20y%3D%2280%22%20width%3D%22174%22%20height%3D%22180%22%20as%3D%22geometry%22%2F%3E%3C%2FmxCell%3E%3C%2Froot%3E%3C%2FmxGraphModel%3E&lt;/span&gt;" style="rounded=0;whiteSpace=wrap;html=1;dashed=1;strokeWidth=5;strokeColor=#9999FF;container=0;shadow=0;" vertex="1" parent="1">
          <mxGeometry x="1170" y="1618" width="400" height="340" as="geometry" />
        </mxCell>
        <mxCell id="J7N65TzNwNF9CHvT1Ihc-2" value="&lt;span style=&quot;color: rgb(0, 0, 0); font-family: Helvetica; font-size: 48px; font-style: normal; font-variant-ligatures: normal; font-variant-caps: normal; font-weight: 700; letter-spacing: normal; orphans: 2; text-align: center; text-indent: 0px; text-transform: none; widows: 2; word-spacing: 0px; -webkit-text-stroke-width: 0px; white-space: normal; background-color: rgb(251, 251, 251); text-decoration-thickness: initial; text-decoration-style: initial; text-decoration-color: initial; display: inline !important; float: none;&quot;&gt;Mage.IA&lt;/span&gt;" style="text;whiteSpace=wrap;html=1;fontFamily=Helvetica;fontSize=11;fontColor=default;labelBackgroundColor=default;container=0;shadow=0;" vertex="1" parent="1">
          <mxGeometry x="1280" y="1879" width="200" height="80" as="geometry" />
        </mxCell>
        <mxCell id="J7N65TzNwNF9CHvT1Ihc-3" value="" style="sketch=0;pointerEvents=1;shadow=0;dashed=0;html=1;labelPosition=center;verticalLabelPosition=bottom;verticalAlign=top;outlineConnect=0;align=center;shape=mxgraph.office.concepts.settings;fontFamily=Helvetica;fontSize=11;labelBackgroundColor=default;fillColor=#1ba1e2;strokeColor=#006EAF;fontColor=#ffffff;container=0;" vertex="1" parent="1">
          <mxGeometry x="1500" y="1548" width="180" height="180" as="geometry" />
        </mxCell>
        <mxCell id="J7N65TzNwNF9CHvT1Ihc-4" value="" style="shape=image;verticalLabelPosition=bottom;labelBackgroundColor=default;verticalAlign=top;aspect=fixed;imageAspect=0;image=https://miro.medium.com/v2/resize:fit:1200/1*BLMkN_JD4e--TAUOqaVf6A.png;imageBorder=none;container=0;shadow=0;" vertex="1" parent="1">
          <mxGeometry x="1289" y="1704" width="170" height="170" as="geometry" />
        </mxCell>
        <mxCell id="rkD8X_6MJbDiaaGYWwtp-3" style="edgeStyle=orthogonalEdgeStyle;rounded=0;orthogonalLoop=1;jettySize=auto;html=1;strokeColor=#6c8ebf;strokeWidth=8;align=center;verticalAlign=middle;fontFamily=Helvetica;fontSize=11;fontColor=default;labelBackgroundColor=default;endArrow=classic;fillColor=#dae8fc;" edge="1" parent="1" source="YOWSx_JvRBE_c-AcAG9M-1" target="rkD8X_6MJbDiaaGYWwtp-1">
          <mxGeometry relative="1" as="geometry" />
        </mxCell>
        <mxCell id="rkD8X_6MJbDiaaGYWwtp-11" style="edgeStyle=orthogonalEdgeStyle;rounded=0;orthogonalLoop=1;jettySize=auto;html=1;entryX=0;entryY=0.5;entryDx=0;entryDy=0;strokeColor=#6c8ebf;strokeWidth=8;align=center;verticalAlign=middle;fontFamily=Helvetica;fontSize=11;fontColor=default;labelBackgroundColor=default;endArrow=classic;fillColor=#dae8fc;" edge="1" parent="1" source="YOWSx_JvRBE_c-AcAG9M-1" target="J7N65TzNwNF9CHvT1Ihc-1">
          <mxGeometry relative="1" as="geometry" />
        </mxCell>
        <mxCell id="YOWSx_JvRBE_c-AcAG9M-1" value="&lt;span style=&quot;color: rgba(0, 0, 0, 0); font-family: monospace; font-size: 0px; text-align: start; text-wrap: nowrap;&quot;&gt;%3CmxGraphModel%3E%3Croot%3E%3CmxCell%20id%3D%220%22%2F%3E%3CmxCell%20id%3D%221%22%20parent%3D%220%22%2F%3E%3CmxCell%20id%3D%222%22%20value%3D%22%22%20style%3D%22group%22%20vertex%3D%221%22%20connectable%3D%220%22%20parent%3D%221%22%3E%3CmxGeometry%20x%3D%221350%22%20y%3D%22-290%22%20width%3D%22400%22%20height%3D%22340%22%20as%3D%22geometry%22%2F%3E%3C%2FmxCell%3E%3CmxCell%20id%3D%223%22%20style%3D%22edgeStyle%3DorthogonalEdgeStyle%3Brounded%3D0%3BorthogonalLoop%3D1%3BjettySize%3Dauto%3Bhtml%3D1%3B%22%20edge%3D%221%22%20parent%3D%222%22%20source%3D%224%22%3E%3CmxGeometry%20relative%3D%221%22%20as%3D%22geometry%22%3E%3CmxPoint%20x%3D%22640%22%20y%3D%22610%22%20as%3D%22targetPoint%22%2F%3E%3C%2FmxGeometry%3E%3C%2FmxCell%3E%3CmxCell%20id%3D%224%22%20value%3D%22%22%20style%3D%22rounded%3D0%3BwhiteSpace%3Dwrap%3Bhtml%3D1%3Bdashed%3D1%3BstrokeWidth%3D5%3BstrokeColor%3D%239999FF%3B%22%20vertex%3D%221%22%20parent%3D%222%22%3E%3CmxGeometry%20width%3D%22400%22%20height%3D%22340%22%20as%3D%22geometry%22%2F%3E%3C%2FmxCell%3E%3CmxCell%20id%3D%225%22%20value%3D%22%22%20style%3D%22shape%3Dimage%3BverticalLabelPosition%3Dbottom%3BlabelBackgroundColor%3Ddefault%3BverticalAlign%3Dtop%3Baspect%3Dfixed%3BimageAspect%3D0%3Bimage%3Dhttps%3A%2F%2Fseeklogo.com%2Fimages%2FA%2Fairbyte-logo-CC005A0105-seeklogo.com.png%3B%22%20vertex%3D%221%22%20parent%3D%222%22%3E%3CmxGeometry%20x%3D%22113%22%20y%3D%2280%22%20width%3D%22174%22%20height%3D%22180%22%20as%3D%22geometry%22%2F%3E%3C%2FmxCell%3E%3C%2Froot%3E%3C%2FmxGraphModel%3E&lt;/span&gt;" style="rounded=0;whiteSpace=wrap;html=1;dashed=1;strokeWidth=5;strokeColor=#9999FF;container=0;shadow=0;" vertex="1" parent="1">
          <mxGeometry x="630" y="1618" width="400" height="340" as="geometry" />
        </mxCell>
        <mxCell id="YOWSx_JvRBE_c-AcAG9M-2" value="" style="shape=image;verticalLabelPosition=bottom;labelBackgroundColor=default;verticalAlign=top;aspect=fixed;imageAspect=0;image=https://cdn.jsdelivr.net/gh/devicons/devicon@latest/icons/nginx/nginx-original.svg;container=0;shadow=0;" vertex="1" parent="1">
          <mxGeometry x="745" y="1703" width="170" height="170" as="geometry" />
        </mxCell>
        <mxCell id="LK0e8bDQ2puja4qrJfyX-1" value="" style="image;sketch=0;aspect=fixed;html=1;points=[];align=center;fontSize=12;image=img/lib/mscae/Docker.svg;container=0;shadow=0;" vertex="1" parent="1">
          <mxGeometry x="430" y="610" width="268.3" height="220" as="geometry" />
        </mxCell>
        <mxCell id="rkD8X_6MJbDiaaGYWwtp-4" style="edgeStyle=orthogonalEdgeStyle;rounded=0;orthogonalLoop=1;jettySize=auto;html=1;entryX=0.5;entryY=0;entryDx=0;entryDy=0;strokeColor=#6c8ebf;strokeWidth=8;align=center;verticalAlign=middle;fontFamily=Helvetica;fontSize=11;fontColor=default;labelBackgroundColor=default;endArrow=classic;fillColor=#dae8fc;" edge="1" parent="1" source="rkD8X_6MJbDiaaGYWwtp-1" target="YOWSx_JvRBE_c-AcAG9M-1">
          <mxGeometry relative="1" as="geometry" />
        </mxCell>
        <mxCell id="rkD8X_6MJbDiaaGYWwtp-5" style="edgeStyle=orthogonalEdgeStyle;rounded=0;orthogonalLoop=1;jettySize=auto;html=1;entryX=0.5;entryY=1;entryDx=0;entryDy=0;strokeColor=#6c8ebf;strokeWidth=8;align=center;verticalAlign=middle;fontFamily=Helvetica;fontSize=11;fontColor=default;labelBackgroundColor=default;endArrow=classic;fillColor=#dae8fc;" edge="1" parent="1" source="rkD8X_6MJbDiaaGYWwtp-1" target="tqLrTWhQqX8cOcFELbVj-1">
          <mxGeometry relative="1" as="geometry" />
        </mxCell>
        <mxCell id="rkD8X_6MJbDiaaGYWwtp-1" value="&lt;span style=&quot;color: rgba(0, 0, 0, 0); font-family: monospace; font-size: 0px; text-align: start; text-wrap: nowrap;&quot;&gt;%3CmxGraphModel%3E%3Croot%3E%3CmxCell%20id%3D%220%22%2F%3E%3CmxCell%20id%3D%221%22%20parent%3D%220%22%2F%3E%3CmxCell%20id%3D%222%22%20value%3D%22%22%20style%3D%22group%22%20vertex%3D%221%22%20connectable%3D%220%22%20parent%3D%221%22%3E%3CmxGeometry%20x%3D%221350%22%20y%3D%22-290%22%20width%3D%22400%22%20height%3D%22340%22%20as%3D%22geometry%22%2F%3E%3C%2FmxCell%3E%3CmxCell%20id%3D%223%22%20style%3D%22edgeStyle%3DorthogonalEdgeStyle%3Brounded%3D0%3BorthogonalLoop%3D1%3BjettySize%3Dauto%3Bhtml%3D1%3B%22%20edge%3D%221%22%20parent%3D%222%22%20source%3D%224%22%3E%3CmxGeometry%20relative%3D%221%22%20as%3D%22geometry%22%3E%3CmxPoint%20x%3D%22640%22%20y%3D%22610%22%20as%3D%22targetPoint%22%2F%3E%3C%2FmxGeometry%3E%3C%2FmxCell%3E%3CmxCell%20id%3D%224%22%20value%3D%22%22%20style%3D%22rounded%3D0%3BwhiteSpace%3Dwrap%3Bhtml%3D1%3Bdashed%3D1%3BstrokeWidth%3D5%3BstrokeColor%3D%239999FF%3B%22%20vertex%3D%221%22%20parent%3D%222%22%3E%3CmxGeometry%20width%3D%22400%22%20height%3D%22340%22%20as%3D%22geometry%22%2F%3E%3C%2FmxCell%3E%3CmxCell%20id%3D%225%22%20value%3D%22%22%20style%3D%22shape%3Dimage%3BverticalLabelPosition%3Dbottom%3BlabelBackgroundColor%3Ddefault%3BverticalAlign%3Dtop%3Baspect%3Dfixed%3BimageAspect%3D0%3Bimage%3Dhttps%3A%2F%2Fseeklogo.com%2Fimages%2FA%2Fairbyte-logo-CC005A0105-seeklogo.com.png%3B%22%20vertex%3D%221%22%20parent%3D%222%22%3E%3CmxGeometry%20x%3D%22113%22%20y%3D%2280%22%20width%3D%22174%22%20height%3D%22180%22%20as%3D%22geometry%22%2F%3E%3C%2FmxCell%3E%3C%2Froot%3E%3C%2FmxGraphModel%3E&lt;/span&gt;" style="rounded=0;whiteSpace=wrap;html=1;dashed=1;strokeWidth=5;fillColor=#ffe6cc;strokeColor=#d79b00;container=0;shadow=0;" vertex="1" parent="1">
          <mxGeometry x="-360" y="1060" width="590" height="549.5" as="geometry" />
        </mxCell>
        <mxCell id="rkD8X_6MJbDiaaGYWwtp-2" value="" style="sketch=0;pointerEvents=1;shadow=0;dashed=0;html=1;strokeColor=none;fillColor=#66B2FF;labelPosition=center;verticalLabelPosition=bottom;verticalAlign=top;outlineConnect=0;align=center;shape=mxgraph.office.concepts.application_web;fontFamily=Helvetica;fontSize=11;fontColor=default;labelBackgroundColor=default;container=0;" vertex="1" parent="1">
          <mxGeometry x="-264.4200000000001" y="1160.25" width="398.85" height="349" as="geometry" />
        </mxCell>
        <mxCell id="rkD8X_6MJbDiaaGYWwtp-6" style="edgeStyle=orthogonalEdgeStyle;rounded=0;orthogonalLoop=1;jettySize=auto;html=1;entryX=0.5;entryY=0;entryDx=0;entryDy=0;strokeColor=#6c8ebf;strokeWidth=8;align=center;verticalAlign=middle;fontFamily=Helvetica;fontSize=11;fontColor=default;labelBackgroundColor=default;endArrow=classic;fillColor=#dae8fc;" edge="1" parent="1" source="tqLrTWhQqX8cOcFELbVj-1" target="rkD8X_6MJbDiaaGYWwtp-1">
          <mxGeometry relative="1" as="geometry" />
        </mxCell>
        <mxCell id="rkD8X_6MJbDiaaGYWwtp-7" style="edgeStyle=orthogonalEdgeStyle;rounded=0;orthogonalLoop=1;jettySize=auto;html=1;entryX=0.5;entryY=0;entryDx=0;entryDy=0;strokeColor=#6c8ebf;strokeWidth=8;align=center;verticalAlign=middle;fontFamily=Helvetica;fontSize=11;fontColor=default;labelBackgroundColor=default;endArrow=classic;fillColor=#dae8fc;" edge="1" parent="1" source="tqLrTWhQqX8cOcFELbVj-1" target="kDbNw65WWVTOaRm87vZu-1">
          <mxGeometry relative="1" as="geometry" />
        </mxCell>
        <mxCell id="rkD8X_6MJbDiaaGYWwtp-9" style="edgeStyle=orthogonalEdgeStyle;rounded=0;orthogonalLoop=1;jettySize=auto;html=1;entryX=0.5;entryY=0;entryDx=0;entryDy=0;strokeColor=#6c8ebf;strokeWidth=8;align=center;verticalAlign=middle;fontFamily=Helvetica;fontSize=11;fontColor=default;labelBackgroundColor=default;endArrow=classic;fillColor=#dae8fc;" edge="1" parent="1" source="kDbNw65WWVTOaRm87vZu-1" target="J7N65TzNwNF9CHvT1Ihc-1">
          <mxGeometry relative="1" as="geometry" />
        </mxCell>
        <mxCell id="QbRmA1RGuO9mMcs_wliR-6" style="edgeStyle=orthogonalEdgeStyle;rounded=0;orthogonalLoop=1;jettySize=auto;html=1;strokeColor=#6c8ebf;strokeWidth=8;align=center;verticalAlign=middle;fontFamily=Helvetica;fontSize=11;fontColor=default;labelBackgroundColor=default;endArrow=classic;fillColor=#dae8fc;" edge="1" parent="1" source="QbRmA1RGuO9mMcs_wliR-1" target="tqLrTWhQqX8cOcFELbVj-1">
          <mxGeometry relative="1" as="geometry" />
        </mxCell>
        <mxCell id="QbRmA1RGuO9mMcs_wliR-1" value="&lt;span style=&quot;color: rgba(0, 0, 0, 0); font-family: monospace; font-size: 0px; text-align: start; text-wrap: nowrap;&quot;&gt;%3CmxGraphModel%3E%3Croot%3E%3CmxCell%20id%3D%220%22%2F%3E%3CmxCell%20id%3D%221%22%20parent%3D%220%22%2F%3E%3CmxCell%20id%3D%222%22%20value%3D%22%22%20style%3D%22group%22%20vertex%3D%221%22%20connectable%3D%220%22%20parent%3D%221%22%3E%3CmxGeometry%20x%3D%221350%22%20y%3D%22-290%22%20width%3D%22400%22%20height%3D%22340%22%20as%3D%22geometry%22%2F%3E%3C%2FmxCell%3E%3CmxCell%20id%3D%223%22%20style%3D%22edgeStyle%3DorthogonalEdgeStyle%3Brounded%3D0%3BorthogonalLoop%3D1%3BjettySize%3Dauto%3Bhtml%3D1%3B%22%20edge%3D%221%22%20parent%3D%222%22%20source%3D%224%22%3E%3CmxGeometry%20relative%3D%221%22%20as%3D%22geometry%22%3E%3CmxPoint%20x%3D%22640%22%20y%3D%22610%22%20as%3D%22targetPoint%22%2F%3E%3C%2FmxGeometry%3E%3C%2FmxCell%3E%3CmxCell%20id%3D%224%22%20value%3D%22%22%20style%3D%22rounded%3D0%3BwhiteSpace%3Dwrap%3Bhtml%3D1%3Bdashed%3D1%3BstrokeWidth%3D5%3BstrokeColor%3D%239999FF%3B%22%20vertex%3D%221%22%20parent%3D%222%22%3E%3CmxGeometry%20width%3D%22400%22%20height%3D%22340%22%20as%3D%22geometry%22%2F%3E%3C%2FmxCell%3E%3CmxCell%20id%3D%225%22%20value%3D%22%22%20style%3D%22shape%3Dimage%3BverticalLabelPosition%3Dbottom%3BlabelBackgroundColor%3Ddefault%3BverticalAlign%3Dtop%3Baspect%3Dfixed%3BimageAspect%3D0%3Bimage%3Dhttps%3A%2F%2Fseeklogo.com%2Fimages%2FA%2Fairbyte-logo-CC005A0105-seeklogo.com.png%3B%22%20vertex%3D%221%22%20parent%3D%222%22%3E%3CmxGeometry%20x%3D%22113%22%20y%3D%2280%22%20width%3D%22174%22%20height%3D%22180%22%20as%3D%22geometry%22%2F%3E%3C%2FmxCell%3E%3C%2Froot%3E%3C%2FmxGraphModel%3E&lt;/span&gt;" style="rounded=0;whiteSpace=wrap;html=1;dashed=1;strokeWidth=5;fillColor=#ffe6cc;strokeColor=#d79b00;container=0;shadow=0;" vertex="1" parent="1">
          <mxGeometry x="580" y="60" width="400" height="370" as="geometry" />
        </mxCell>
        <mxCell id="QbRmA1RGuO9mMcs_wliR-2" value="" style="shape=image;verticalLabelPosition=bottom;labelBackgroundColor=default;verticalAlign=top;aspect=fixed;imageAspect=0;image=https://cdn.jsdelivr.net/gh/devicons/devicon@latest/icons/facebook/facebook-original.svg;container=0;shadow=0;" vertex="1" parent="1">
          <mxGeometry x="690" y="140" width="210" height="210" as="geometry" />
        </mxCell>
        <mxCell id="QbRmA1RGuO9mMcs_wliR-3" value="" style="sketch=0;shadow=0;dashed=0;html=1;strokeColor=none;labelPosition=center;verticalLabelPosition=bottom;verticalAlign=top;outlineConnect=0;align=center;shape=mxgraph.office.databases.database_cube;fillColor=#2072B8;fontFamily=Helvetica;fontSize=11;fontColor=default;labelBackgroundColor=default;container=0;" vertex="1" parent="1">
          <mxGeometry x="1030" y="150" width="153.65" height="170" as="geometry" />
        </mxCell>
        <mxCell id="QbRmA1RGuO9mMcs_wliR-4" value="" style="sketch=0;shadow=0;dashed=0;html=1;strokeColor=none;labelPosition=center;verticalLabelPosition=bottom;verticalAlign=top;outlineConnect=0;align=center;shape=mxgraph.office.databases.database_cube;fillColor=#2072B8;fontFamily=Helvetica;fontSize=11;fontColor=default;labelBackgroundColor=default;container=0;" vertex="1" parent="1">
          <mxGeometry x="1183.65" y="150" width="153.65" height="170" as="geometry" />
        </mxCell>
        <mxCell id="QbRmA1RGuO9mMcs_wliR-5" value="" style="sketch=0;shadow=0;dashed=0;html=1;strokeColor=none;labelPosition=center;verticalLabelPosition=bottom;verticalAlign=top;outlineConnect=0;align=center;shape=mxgraph.office.databases.database_cube;fillColor=#2072B8;fontFamily=Helvetica;fontSize=11;fontColor=default;labelBackgroundColor=default;container=0;" vertex="1" parent="1">
          <mxGeometry x="1337.3000000000002" y="150" width="153.65" height="170" as="geometry" />
        </mxCell>
        <mxCell id="0ZA1Bk6u35t-kXVyPO7H-5" value="Modern Data Stack &amp;amp;&amp;amp; Marketing" style="text;fontFamily=Helvetica;fontSize=108;fontColor=default;labelBackgroundColor=none;container=0;shadow=1;fillColor=none;align=center;verticalAlign=middle;horizontal=1;labelBorderColor=none;textShadow=1;html=1;fontStyle=1;whiteSpace=wrap;strokeColor=default;dashed=1;strokeWidth=5;perimeterSpacing=5;rounded=1;glass=0;" vertex="1" parent="1">
          <mxGeometry x="216.70999999999998" y="-170" width="1816.59" height="140" as="geometry" />
        </mxCell>
      </root>
    </mxGraphModel>
  </diagram>
</mxfile>
